/* XPM */
static char * collectible_01_xpm[] = {
"48 48 368 2",
"  	c #668B46",
". 	c #618744",
"+ 	c #577D3E",
"@ 	c #638945",
"# 	c #557A3E",
"$ 	c #628944",
"% 	c #658C48",
"& 	c #5C8341",
"* 	c #4C7339",
"= 	c #567B3E",
"- 	c #5A8040",
"; 	c #608443",
"> 	c #5D8040",
", 	c #668B48",
"' 	c #587E3F",
") 	c #5B8140",
"! 	c #486D36",
"~ 	c #577E3D",
"{ 	c #608544",
"] 	c #5D8441",
"^ 	c #628844",
"/ 	c #50763B",
"( 	c #5A8140",
"_ 	c #5C8241",
": 	c #4F743A",
"< 	c #597F40",
"[ 	c #55793E",
"} 	c #4E7039",
"| 	c #4E723A",
"1 	c #638A46",
"2 	c #628644",
"3 	c #5E8442",
"4 	c #51783C",
"5 	c #4B7139",
"6 	c #4A7139",
"7 	c #5B8041",
"8 	c #618644",
"9 	c #648A45",
"0 	c #5C8242",
"a 	c #6C924A",
"b 	c #4E743A",
"c 	c #6B9049",
"d 	c #486E37",
"e 	c #50753B",
"f 	c #56793E",
"g 	c #567C3E",
"h 	c #557B3D",
"i 	c #577A3E",
"j 	c #58803F",
"k 	c #608643",
"l 	c #699049",
"m 	c #5F8744",
"n 	c #5A813F",
"o 	c #648B46",
"p 	c #668B47",
"q 	c #688E47",
"r 	c #658A46",
"s 	c #5E8541",
"t 	c #557B3E",
"u 	c #4E743B",
"v 	c #476D36",
"w 	c #5E8441",
"x 	c #5A7F3F",
"y 	c #658B47",
"z 	c #5D8341",
"A 	c #5C8140",
"B 	c #638845",
"C 	c #6A914A",
"D 	c #6F934B",
"E 	c #73934A",
"F 	c #698C48",
"G 	c #5D8342",
"H 	c #658B46",
"I 	c #698F48",
"J 	c #608743",
"K 	c #72954B",
"L 	c #6C9049",
"M 	c #4F743B",
"N 	c #5D8240",
"O 	c #547A3D",
"P 	c #52773E",
"Q 	c #577E3F",
"R 	c #51763C",
"S 	c #5A7E3F",
"T 	c #658A47",
"U 	c #608845",
"V 	c #6A9048",
"W 	c #6B9149",
"X 	c #5E8542",
"Y 	c #638B45",
"Z 	c #628743",
"` 	c #608644",
" .	c #6A9049",
"..	c #658B45",
"+.	c #648945",
"@.	c #668C47",
"#.	c #618743",
"$.	c #5C8441",
"%.	c #6C9249",
"&.	c #678E47",
"*.	c #4C713A",
"=.	c #598040",
"-.	c #638946",
";.	c #658A45",
">.	c #608846",
",.	c #628A45",
"'.	c #557C3E",
").	c #5D8442",
"!.	c #567A3D",
"~.	c #52733A",
"{.	c #597D3F",
"].	c #5B813F",
"^.	c #5F8443",
"/.	c #567E3E",
"(.	c #4E753C",
"_.	c #587F3F",
":.	c #6B904A",
"<.	c #547B3D",
"[.	c #577D3F",
"}.	c #52753B",
"|.	c #506D37",
"1.	c #5B7F3F",
"2.	c #5E8242",
"3.	c #648A46",
"4.	c #618843",
"5.	c #446A35",
"6.	c #4D7238",
"7.	c #53783C",
"8.	c #5B7E3F",
"9.	c #5D8343",
"0.	c #446332",
"a.	c #4E6936",
"b.	c #5F8542",
"c.	c #587E3E",
"d.	c #4D7439",
"e.	c #4D7339",
"f.	c #5D8340",
"g.	c #446935",
"h.	c #5E8543",
"i.	c #547A3E",
"j.	c #5B803F",
"k.	c #5C7F40",
"l.	c #6A9149",
"m.	c #51783D",
"n.	c #587F40",
"o.	c #4F763C",
"p.	c #4D743B",
"q.	c #587C3E",
"r.	c #5A7C3E",
"s.	c #6B8F48",
"t.	c #668845",
"u.	c #688D48",
"v.	c #567C3F",
"w.	c #587D40",
"x.	c #436935",
"y.	c #628845",
"z.	c #5B7F41",
"A.	c #5E8643",
"B.	c #70944A",
"C.	c #70934A",
"D.	c #6D914A",
"E.	c #597F3F",
"F.	c #567D3F",
"G.	c #5A8142",
"H.	c #638A45",
"I.	c #628945",
"J.	c #6A904A",
"K.	c #5F8644",
"L.	c #678E48",
"M.	c #5F8543",
"N.	c #5A7F40",
"O.	c #698D48",
"P.	c #537A3D",
"Q.	c #436836",
"R.	c #658C47",
"S.	c #6B924B",
"T.	c #688C48",
"U.	c #5A803F",
"V.	c #668A47",
"W.	c #598240",
"X.	c #5A8240",
"Y.	c #486F37",
"Z.	c #608844",
"`.	c #53793D",
" +	c #608843",
".+	c #587E40",
"++	c #567E3F",
"@+	c #53793C",
"#+	c #567D3E",
"$+	c #557D3E",
"%+	c #577B3E",
"&+	c #618844",
"*+	c #557C3F",
"=+	c #577B3D",
"-+	c #4F6D36",
";+	c #4F783D",
">+	c #5B8141",
",+	c #53793E",
"'+	c #476C37",
")+	c #688C47",
"!+	c #678C47",
"~+	c #577D3D",
"{+	c #5E8341",
"]+	c #5F8643",
"^+	c #5E8642",
"/+	c #688E48",
"(+	c #608744",
"_+	c #5E8443",
":+	c #436734",
"<+	c #59793D",
"[+	c #58783D",
"}+	c #51733A",
"|+	c #3452B3",
"1+	c #358EE4",
"2+	c #52763C",
"3+	c #597E3F",
"4+	c #466835",
"5+	c #456634",
"6+	c #4B6E37",
"7+	c #4A7037",
"8+	c #4D733B",
"9+	c #668E48",
"0+	c #638944",
"a+	c #587D3F",
"b+	c #588040",
"c+	c #5B8242",
"d+	c #547A3F",
"e+	c #537A3E",
"f+	c #4B7137",
"g+	c #5D8242",
"h+	c #6C9149",
"i+	c #4B7239",
"j+	c #5B7E3E",
"k+	c #658946",
"l+	c #547C3D",
"m+	c #658D46",
"n+	c #5F8442",
"o+	c #59803F",
"p+	c #608542",
"q+	c #598140",
"r+	c #598141",
"s+	c #678C46",
"t+	c #7BC6F8",
"u+	c #6F954B",
"v+	c #638745",
"w+	c #698F49",
"x+	c #4F753B",
"y+	c #4F733A",
"z+	c #53743B",
"A+	c #648946",
"B+	c #54773C",
"C+	c #456935",
"D+	c #55723A",
"E+	c #4A6434",
"F+	c #699048",
"G+	c #71924A",
"H+	c #5F8743",
"I+	c #51773C",
"J+	c #658945",
"K+	c #426232",
"L+	c #4D723B",
"M+	c #F1F1F1",
"N+	c #506B35",
"O+	c #50793D",
"P+	c #4B713A",
"Q+	c #628744",
"R+	c #618945",
"S+	c #4A7039",
"T+	c #557A3D",
"U+	c #53773D",
"V+	c #577E3E",
"W+	c #567D3D",
"X+	c #608242",
"Y+	c #6E934A",
"Z+	c #5D8041",
"`+	c #5D8140",
" @	c #678D48",
".@	c #6A9148",
"+@	c #5E8342",
"@@	c #4C7139",
"#@	c #4F763B",
"$@	c #52783B",
"%@	c #6D934B",
"&@	c #71944B",
"*@	c #6D9049",
"=@	c #70974C",
"-@	c #51713A",
";@	c #4B6835",
">@	c #6F964B",
",@	c #70964B",
"'@	c #698E49",
")@	c #628843",
"!@	c #698E48",
"~@	c #648A44",
"{@	c #4B6D37",
"]@	c #4E6F38",
"^@	c #5F8441",
"/@	c #597D3E",
"(@	c #4D6E37",
"_@	c #567A3E",
":@	c #466834",
"<@	c #527239",
"[@	c #54743C",
"}@	c #50733B",
"|@	c #55743B",
"1@	c #56793C",
"2@	c #618543",
"3@	c #4D713A",
"4@	c #688B46",
"5@	c #628541",
"6@	c #52783C",
"7@	c #638B44",
"8@	c #5B8040",
"9@	c #5E7F3F",
"0@	c #5C8342",
"a@	c #638844",
"b@	c #50783C",
"c@	c #71954C",
"d@	c #648B47",
"e@	c #72974B",
"f@	c #638A44",
"g@	c #5B8240",
"h@	c #658C46",
"i@	c #597F41",
"j@	c #5C8340",
"k@	c #52773C",
"l@	c #5D8241",
"m@	c #577C3E",
"n@	c #5B8341",
"o@	c #668D47",
"p@	c #466836",
"q@	c #4B733B",
"r@	c #668A46",
"s@	c #648D46",
"t@	c #6A8F49",
"u@	c #557D3D",
"v@	c #53783D",
"w@	c #557A3C",
"x@	c #52773D",
"y@	c #567C3D",
"z@	c #52793B",
"A@	c #547D3E",
"B@	c #577F3F",
"C@	c #6A8F4A",
"D@	c #6F944A",
"E@	c #4F6F38",
"F@	c #56753B",
"G@	c #436A35",
"H@	c #55733B",
"I@	c #648944",
"J@	c #4F6F37",
"K@	c #446834",
"L@	c #5C8442",
"M@	c #5A7E41",
"N@	c #749A4E",
"O@	c #678E49",
"P@	c #648B45",
"Q@	c #5A8041",
"R@	c #638B47",
"S@	c #688D47",
"T@	c #4C743A",
"U@	c #5D7E40",
"V@	c #54743B",
"W@	c #55783D",
"X@	c #608543",
"Y@	c #5B8241",
"Z@	c #466A36",
"`@	c #587F3E",
"  . + @ # $ % & * = - ; > , . ' ) ! ~ { ] ^ / (   . + @ # $ % & * = - ; > , . ' ) ! ~ { ] ^ / - ",
"_ : < [ . ( } | 1 2 3 ] 4 5 6 + 7 ^ 8 9 & 0 _ a ( b < [ . ( } | 1 2 3 ] 4 5 6 + 7 ^ 8 9 & 0 _ c ",
"d e ; f g h i j k l m n o _ p q ) ' r s t u 3 3 v e ; f g h i j k l m n o _ p q ) ' r s t u 3 w ",
"x y z A ] B C D E F G H C I J K L M N ^ O P Q R S T z A ] B C D E F G H C I J K L M N ^ O P Q R ",
"U V W X Y H Z ` r  .o ..+.@.#.$.%.&.*.=.g -.;.& >.V W X Y H Z ` r  .o ..+.@.#.$.%.&.*.=.g -.;.z ",
"^ ,.O '.).!.~.{.].].` #.^.G h /.( + [ (._.;.#.( @ 1 O '.).!.~.{.].].` #.^.G h /.( + [ (._.;.#.- ",
":.<.[.#.}.|.1.2.3.( 4.Q 5.6.7.8.9.0.a.8 b.c.d.w C <.[.#.}.|.1.2.3.( 4.Q 5.6.7.8.9.0.a.8 b.c.e.f.",
"{.g.h.i.j.k.l.m.M n.w o.p.q.r.) s.t.o  .u.J v.-.w.x.h.i.j.k.l.m.M n.w o.p.q.r.) s.t.o  .u.J '.y.",
"z.A.h.^ B.C.D.I & E.' F.G.H.I.J ^.I J.K..   L.M.N.h.h.^ B.C.D.I & E.' F.G.H.I.J ^.I J.K..   L.z ",
"O.P.Q.R.( < S.@ 3.T.U.y.V.p W.j X.^ ] Y.^.y.Z.9 u.`.Q.R.( < S.@ 3.T.U.y.V.p W.j X.^ ] Y.^.y. +@ ",
"+..+e ++@+#+$+k _.%+&+& *+v.=+-+%+g ;+>+,+'+M.)+@ .+e ++@+#+$+k _.%+&+& *+v.=+-+%+g ;+>+,+'+M.!+",
"~+#+{+]+r !+^+- p /+(+_+`.:+<+[+}+|+|+1+1+1+1+1+1+1+1+|+|+!+^+- p /+(+_+`.:+<+[+}+2+3+* 4+5+6+k ",
"7+8+ .T +.9+M.(+0+, a+b+c+d+e+f+g+|+|+1+1+1+1+1+1+1+1+|+|+9+M.(+0+, a+b+c+d+e+f+g+h+O i+j+k+u.l+",
"m+J. .n+a+_ M.o+p+q+r+).s+|+|+|+|+1+1+t+t+t+t+t+t+t+t+t+t+1+1+|+|+q+r+).s+u+@ v+ .w+@ 9 @.W @ r ",
"x t G x+X.y+z+A+B+C+g+D+E+|+|+|+|+1+1+t+t+t+t+t+t+t+t+t+t+1+1+|+|+C+g+D+E+k+F+G+L y.H+U.x+I+i.^ ",
"~ J+3.) E._ K+L+$.].%+1+1+t+t+1+1+t+t+M+M+t+t+t+t+t+t+M+M+t+t+1+1+|+|+N+n+O+P+m @.Q+R+O.H #+S+v.",
"T+U+#.V+W+I.X+t.Y+!+Z+1+1+t+t+1+1+t+t+M+M+t+t+t+t+t+t+M+M+t+t+1+1+|+|+`+ @G..@H +@o ,.@@#@M.m.1 ",
"$@_ ]+ .. H %@&@*@|+|+t+t+M+M+1+1+t+t+M+M+M+M+t+t+M+M+M+M+t+t+1+1+|+|+|+|+=@H -@;@[ ]+. >@,@'.i.",
"'@Y+F+)@!@c I.o+.+|+|+t+t+M+M+1+1+t+t+M+M+M+M+t+t+M+M+M+M+t+t+1+1+|+|+|+|+~@{@]@^@/@(@@ !+m.P.=.",
"T 0+ @. k Q B+_@N.1+1+M+M+M+M+t+t+1+1+t+t+M+M+M+M+M+M+t+t+1+1+|+|+|+|+|+|+| =+B+:@<@[@+@x+}@|@T ",
"+ ^.B ^ v.m.# 1@2@1+1+M+M+M+M+t+t+1+1+t+t+M+M+M+M+M+M+t+t+1+1+|+|+|+|+|+|+  q 3@4@D.3+%+| 5@f.o+",
"6@'@7@= 8@9@7 0@a@1+1+M+M+M+M+M+M+t+t+1+1+1+1+1+1+1+1+1+1+|+|+|+|+|+|+|+|+0 b@c@^ d@e@{+M./+w+f@",
"w+_ g@#+9 h@+.!@i@1+1+M+M+M+M+M+M+t+t+1+1+1+1+1+1+1+1+1+1+|+|+|+|+|+|+|+|+'.. d@j@y.h@` @.;.u.Q+",
"~@. k@^+G.l@[.m@P+|+|+t+t+M+M+t+t+1+1+M+M+t+t+1+1+1+1+t+t+1+1+|+|+|+|+|+|+2@Q n@o@_+p@x+$.#.V+' ",
"  . + @ # $ % & * |+|+t+t+M+M+t+t+1+1+M+M+t+t+1+1+1+1+t+t+1+1+|+|+|+|+|+|+, . ' ) ! ~ { ] ^ / - ",
"_ : < [ . ( } | 1 2 3 1+1+t+t+t+t+M+M+M+M+M+M+1+1+t+t+t+t+t+t+1+1+|+|+] 4 5 6 + 7 ^ 8 9 & 0 _ c ",
"d e ; f g h i j k l m 1+1+t+t+t+t+M+M+M+M+M+M+1+1+t+t+t+t+t+t+1+1+|+|+n o _ p q ) ' r s t u 3 w ",
"x y z A ] B C D E F G H C 1+1+t+t+M+M+M+M+M+M+1+1+t+t+t+t+1+1+|+|+F G H C I J K L M N ^ O P Q R ",
"U V W X Y H Z ` r  .o ..+.1+1+t+t+M+M+M+M+M+M+1+1+t+t+t+t+1+1+|+|+ .o ..+.@.#.$.%.&.*.=.g -.;.z ",
"^ ,.O '.).!.~.{.].].` #.^.G h 1+1+t+t+M+M+M+M+1+1+t+t+t+t+|+|+{.].].` #.^.G h /.( + [ (._.;.#.- ",
":.<.[.#.}.|.1.2.3.( 4.Q 5.6.7.1+1+t+t+M+M+M+M+1+1+t+t+t+t+|+|+2.3.( 4.Q 5.6.7.8.9.0.a.8 b.c.e.f.",
"{.g.h.i.j.k.l.m.M n.w o.p.q.r.) s.1+1+t+t+M+M+1+1+t+t+|+|+k.l.m.M n.w o.p.q.r.) s.t.o  .u.J '.y.",
"z.A.h.^ B.C.D.I & E.' F.G.H.I.J ^.1+1+t+t+M+M+1+1+t+t+|+|+C.D.I & E.' F.G.H.I.J ^.I J.K..   L.z ",
"O.P.Q.R.( < S.@ 3.T.U.y.V.p W.j X.^ ] |+|+t+t+1+1+|+|+R.( < S.@ 3.T.U.y.V.p W.j X.^ ] Y.^.y. +@ ",
"+..+e ++@+#+$+k _.%+&+& *+v.=+-+%+g ;+|+|+t+t+1+1+|+|+++@+#+$+k _.%+&+& *+v.=+-+%+g ;+>+,+'+M.!+",
"~+#+{+]+r !+^+- p /+(+_+`.:+<+[+}+2+3+* 4+|+|+|+|+g {+]+r !+^+- p /+(+_+`.:+<+[+}+2+3+* 4+5+6+k ",
"7+8+ .T +.9+M.(+0+, a+b+c+d+e+f+g+h+O i+j+|+|+|+|+q@ .T +.9+M.(+0+, a+b+c+d+e+f+g+h+O i+j+k+u.l+",
"m+J. .n+a+_ M.o+p+q+r+).s+u+@ v+ .w+@ 9 @.W 9 r@s@ .t@n+a+_ M.o+p+q+r+).s+u+@ v+ .w+@ 9 @.W @ r ",
"x t G x+X.y+z+A+B+C+g+D+E+k+F+G+L y.H+U.x+I+# @ E.# 0@x+X.y+z+A+B+C+g+D+E+k+F+G+L y.H+U.x+I+i.^ ",
"~ J+3.) E._ K+L+$.].%+N+n+O+P+m @.Q+R+O.H #+5 [.u@+.3.) E._ K+L+$.].%+N+n+O+P+m @.Q+R+O.H #+S+v.",
"T+U+#.V+W+I.X+t.Y+!+Z+`+ @G..@H +@o ,.@@#@M.v@y w@x@J V+W+I.X+t.Y+!+Z+`+ @G..@H +@o ,.@@#@M.m.1 ",
"$@_ ]+ .. H %@&@*@m #.y@(+=@H -@;@[ ]+. >@,@'.i.z@& ]+ .. H %@&@*@m #.y@(+=@H -@;@[ ]+. >@,@'.i.",
"'@Y+F+)@!@c I.o+.+H.A@(+Z.~@{@]@^@/@(@@ !+m.`.B@C@D@F+)@!@c I.o+.+H.A@(+Z.~@{@]@^@/@(@@ !+m.P.=.",
"T 0+ @. k Q B+_@N.E@F@g G@| =+B+:@<@[@+@x+}@H@A+p I@ @. k Q B+_@N.E@F@g G@| =+B+:@<@[@+@x+}@|@T ",
"+ ^.B ^ v.m.# 1@2@I.J@K@v.  q 3@4@D.3+%+| 5@f.o+[.^.B ^ v.m.# 1@2@I.J@K@v.  q 3@4@D.3+%+| 5@f.o+",
"6@'@7@= 8@9@7 L@0+q+#@M@N@0 b@c@^ d@e@{+M./+w+H.6@O@7@= 8@9@7 L@0+q+#@M@N@0 b@c@^ d@e@{+M./+w+f@",
"t@_ g@#+P@o@k+I Q@. 8 . (+'.. R@j@y.h@` !+;.S@Q+J.0 g@#+P@o@k+I Q@. 8 . (+'.. R@j@y.h@` !+;.u.a@",
"^ J k@H+c+X < < T@p.U@V@W@X@[.Y@o@_+Z@/ X Z `@_.;.. k@H+c+X < < T@p.U@V@W@X@[.Y@o@_+Z@/ X Q+E.- "};
