/* XPM */
static char * door_02_xpm[] = {
"48 48 216 2",
"  	c None",
". 	c #9F9DA7",
"+ 	c #A09EA8",
"@ 	c #A2A0AA",
"# 	c #A5A3AE",
"$ 	c #A7A5B0",
"% 	c #A6A4AE",
"& 	c #A5A3AD",
"* 	c #A6A5AF",
"= 	c #A3A2AC",
"- 	c #A19FAA",
"; 	c #98959E",
"> 	c #8C8A92",
", 	c #848289",
"' 	c #85828A",
") 	c #8A8790",
"! 	c #8D8B94",
"~ 	c #8E8C95",
"{ 	c #8E8B94",
"] 	c #8C8A93",
"^ 	c #8A878F",
"/ 	c #86848B",
"( 	c #8D8A93",
"_ 	c #8B8991",
": 	c #929099",
"< 	c #9A98A2",
"[ 	c #8C8991",
"} 	c #706D73",
"| 	c #5F5B5F",
"1 	c #605C61",
"2 	c #6B686E",
"3 	c #747078",
"4 	c #75727A",
"5 	c #747179",
"6 	c #726E75",
"7 	c #635F64",
"8 	c #737077",
"9 	c #726F76",
"0 	c #716E75",
"a 	c #6F6B72",
"b 	c #7F7C84",
"c 	c #838188",
"d 	c #5D595C",
"e 	c #433F40",
"f 	c #444042",
"g 	c #534E53",
"h 	c #5E5A60",
"i 	c #615D64",
"j 	c #555155",
"k 	c #494547",
"l 	c #605C62",
"m 	c #5F5B61",
"n 	c #5E5960",
"o 	c #5A565C",
"p 	c #A7A6B0",
"q 	c #827F86",
"r 	c #585558",
"s 	c #3C3838",
"t 	c #3B3637",
"u 	c #474245",
"v 	c #514D51",
"w 	c #565258",
"x 	c #433F41",
"y 	c #504C50",
"z 	c #5C585E",
"A 	c #5B575D",
"B 	c #838088",
"C 	c #5B585B",
"D 	c #403B3C",
"E 	c #3A3636",
"F 	c #413D3E",
"G 	c #494447",
"H 	c #514C50",
"I 	c #5A565B",
"J 	c #555156",
"K 	c #474345",
"L 	c #464244",
"M 	c #544F54",
"N 	c #5D5960",
"O 	c #3B3737",
"P 	c #3E393A",
"Q 	c #4C484B",
"R 	c #585459",
"S 	c #575358",
"T 	c #4A4648",
"U 	c #858289",
"V 	c #403C3C",
"W 	c #474344",
"X 	c #504C4F",
"Y 	c #545055",
"Z 	c #4F4B4E",
"` 	c #565257",
" .	c #585458",
"..	c #575357",
"+.	c #423E3F",
"@.	c #545054",
"#.	c #6C696F",
"$.	c #8A8890",
"%.	c #A5A4AE",
"&.	c #3D3939",
"*.	c #484446",
"=.	c #464243",
"-.	c #4B4749",
";.	c #4C484A",
">.	c #4A4649",
",.	c #646166",
"'.	c #87848C",
").	c #A6A4AF",
"!.	c #5E5B5E",
"~.	c #3E3A3B",
"{.	c #454143",
"].	c #4D494B",
"^.	c #4D494C",
"/.	c #4F4B4D",
"(.	c #444041",
"_.	c #4B474A",
":.	c #3D3839",
"<.	c #5C595C",
"[.	c #848188",
"}.	c #5D5A5D",
"|.	c #413D3F",
"1.	c #5D595E",
"2.	c #625E63",
"3.	c #615D62",
"4.	c #3F3B3B",
"5.	c #3F3B3C",
"6.	c #514D50",
"7.	c #59555A",
"8.	c #443F41",
"9.	c #646067",
"0.	c #6A666C",
"a.	c #6D6970",
"b.	c #706C73",
"c.	c #716D74",
"d.	c #534F53",
"e.	c #67636A",
"f.	c #6C6870",
"g.	c #706C74",
"h.	c #736F77",
"i.	c #524E52",
"j.	c #666269",
"k.	c #6B676E",
"l.	c #716D75",
"m.	c #726E76",
"n.	c #494548",
"o.	c #4E4A4D",
"p.	c #454142",
"q.	c #403C3D",
"r.	c #484445",
"s.	c #464143",
"t.	c #656266",
"u.	c #87858C",
"v.	c #615D63",
"w.	c #534F54",
"x.	c #6D6A70",
"y.	c #8B8891",
"z.	c #656166",
"A.	c #393535",
"B.	c #5E5A5E",
"C.	c #3C3839",
"D.	c #3A3635",
"E.	c #504B4F",
"F.	c #828087",
"G.	c #5A575A",
"H.	c #4F4A4E",
"I.	c #5C575D",
"J.	c #625E65",
"K.	c #68636A",
"L.	c #6E6A71",
"M.	c #423E40",
"N.	c #4D484C",
"O.	c #817F86",
"P.	c #585457",
"Q.	c #3D383A",
"R.	c #4C474B",
"S.	c #59555B",
"T.	c #666168",
"U.	c #69656C",
"V.	c #6C686F",
"W.	c #5B575B",
"X.	c #4A4549",
"Y.	c #706D74",
"Z.	c #8C8992",
"`.	c #716E73",
" +	c #5F5B60",
".+	c #69656B",
"++	c #76737A",
"@+	c #7A767E",
"#+	c #7C7981",
"$+	c #7E7B83",
"%+	c #7F7B84",
"&+	c #736F76",
"*+	c #666267",
"=+	c #6A676D",
"-+	c #605D61",
";+	c #67646A",
">+	c #817E86",
",+	c #93919A",
"'+	c #98959F",
")+	c #89868E",
"!+	c #908D96",
"~+	c #918E97",
"{+	c #928F98",
"]+	c #928F99",
"^+	c #88858D",
"/+	c #86838B",
"(+	c #89878F",
"_+	c #85838A",
":+	c #88868E",
"<+	c #93909A",
"[+	c #9B98A2",
"}+	c #A4A3AD",
"|+	c #A4A2AC",
"1+	c #A7A5AF",
"2+	c #A3A1AC",
"3+	c #A19FA9",
". + @ # $ $ % & & & & % * $ * % & & & & & & & % * $ * % & & & & & & & % * $ * % & & # & = - + + ",
"+ + + + + + + + + + + + + + + + + + + + + + + + + + + + + + + + + + + + + + + + + + + + + + + + ",
"@ + ; > , ' ) ! ~ { ] ^ / , / ) ] ( ( ] ( ( ] ) / , / ) ] ( ( ] ( ( ] ) / , / ) ] ] _ ] : < + - ",
"& + [ } | 1 2 3 4 5 6 2 7 | 7 2 6 8 9 6 9 8 6 2 7 | 7 2 6 8 9 6 9 8 6 2 7 | 7 2 6 0 a 6 b : + = ",
"$ + c d e f g h i i h j k e k j h l m h m l h j k e k j h l m h m l h j k e k j h n o h 6 ] + & ",
"p + q r s t u v w o o v x s e y o z A o A z o y e s e y o z A o A z o y e s e y o o w o a _ + # ",
"$ + B C D E F G H I n J K D L M n l m n m l n M L D L M n l m n m l n M L D L M n N o n 0 ] + & ",
"$ + , | e O P e Q R h S T e k j h l m h m l h j k e k j h l m h m l h j k e k j h n o h 6 ] + & ",
"$ + U | e E s V W X Y X L F L Z `  .S ` ` ..j Z L +.L Z j ..` ` ` ..j Z L +.L Z j @.v ` #.$.+ %.",
"$ + U | e O &.V +.L *.=.+.V e K -.Q ;.-.-.>.k L e F e L k >.-.-.-.>.k L e F e L k K f -.,.'.+ ).",
"$ + , | e s D e e e e e e e e e e e e e e e e e e e e e e e e e e e e e e e e e e D s e | , + $ ",
"$ + , !.e ~.{.-.Q ].^./.X Z -.{.F V V F (.K T _.Q Q Q _.T K e F e K T _.Q Q Q _.T (.:.F <.[.+ $ ",
"$ + [.}.e |.Q ` I 1.1 2.7 3. .-.+.4.5.+.*.6.S 7.7.R 7.7.S X W +.W X S 7.7.R 7.7.S ^.F +.<.c + $ ",
"$ + c d e 8.v h 9.0.a.b.c.a.3.Z e 4.5.e -.` h l m h m l h j k e k j h l m h m l h g f e d c + $ ",
"$ + c <.e f d.l e.f.g.h.3 g.7 X e 4.4.+.*.y ` R S ` R 7.R v *.e K y S 7.7.R 7.7.S ^.F +.<.c + $ ",
"$ + c <.e f i.m j.k.a l.m.a 2.X e 4.5.F e L k n.k k >.;.Q k {.e f K T _.;.Q Q _.T (.:.F <.[.+ $ ",
"$ + c d e 8.v h 9.0.a.b.c.a.3.Z e V F e e e e e e e e e e e e e e e e e e e e e e D s e | , + $ ",
"$ + c d e 8.v h 9.0.a.b.c.a.1 Z e +.K -.Q ^.^.o.o.^.T p.F q.F e =.k T r.e F e K T *.s.Q t.u.+ ).",
"$ + c d e 8.v h 9.0.a.b.c.a.1 o.e {.o.` I 1.1 v.2.1 ..-.+.5.q.e T d.S v K +.W X S ` w.R x.y.+ # ",
"$ + c d e 8.v h 9.0.a.b.c.a.1 ^.e K w.h 9.0.a.b.c.a.3.Z e 4.5.e Q R h S T e k j h n o h 6 ] + & ",
"$ + c d e 8.v h 9.0.a.b.c.a.m ^.e *.j l e.f.g.h.3 g.7 X e 4.4.+.k i.` v K F W 6.R S M R x.y.+ # ",
"$ + c d e 8.v h 9.0.a.b.c.a.1 ^.e *.@.m j.k.a l.m.a 2.X e 4.5.F (.K k L +.V e *.Q T L Q z.u.+ ).",
"$ + c d e 8.v h 9.0.a.b.c.a.1 ^.e K w.h 9.0.a.b.c.a.3.Z e V F e e e e e e e e e e D s e | , + $ ",
"$ + c d e 8.v h 9.0.a.b.c.a.1 ^.e K w.h 9.0.a.b.c.a.1 Z e +.K -.Q ].^./.X Z -.{.F s A.F }.[.+ $ ",
"$ + c d e 8.v h 9.0.a.b.c.a.1 ^.e K w.h 9.0.a.b.c.a.1 o.e {.o.` I 1.1 2.7 3. .-.+.s E +.B., + $ ",
"$ + c d e 8.v h 9.0.a.b.c.a.1 ^.e K w.h 9.0.a.b.c.a.1 ^.e K w.h 9.0.a.b.c.a.3.Z e C.t e | , + $ ",
"$ + c d e 8.v h 9.0.a.b.c.a.1 ^.e K w.h 9.0.a.b.c.a.m ^.e *.j l e.f.g.h.3 g.7 X e s D.+.B., + $ ",
"$ + c d e 8.v h 9.0.a.b.c.a.1 ^.e K w.h 9.0.a.b.c.a.1 ^.e *.@.m j.k.a l.m.a 2.X e s A.F }.[.+ $ ",
"$ + c d e 8.v h 9.0.a.b.c.a.1 ^.e K w.h 9.0.a.b.c.a.1 ^.e K w.h 9.0.a.b.c.a.3.Z e C.t e | , + $ ",
"$ + c d e 8.v h 9.0.a.b.c.a.1 ^.e K w.h 9.0.a.b.c.a.1 ^.e K w.h 9.0.a.b.c.a.1 Z e 5.F -.z.u.+ ).",
"$ + c d e 8.v h 9.0.a.b.c.a.1 ^.e K w.h 9.0.a.b.c.a.1 ^.e K w.h 9.0.a.b.c.a.1 o.e e n.` x.y.+ %.",
"$ + c d e 8.v h 9.0.a.b.c.a.1 ^.e K w.h 9.0.a.b.c.a.1 ^.e K w.h 9.0.a.b.c.a.1 ^.e {.E.h 3 ! + & ",
"$ + c d e 8.v h 9.0.a.b.c.a.1 ^.e K w.h 9.0.a.b.c.a.1 ^.e K w.h 9.0.a.b.c.a.m ^.e L v l 4 ~ + & ",
"$ + c d e 8.v h 9.0.a.b.c.a.1 ^.e K w.h 9.0.a.b.c.a.1 ^.e K w.h 9.0.a.b.c.a.1 ^.e L y m 5 { + & ",
"$ + c d e 8.v h 9.0.a.b.c.a.1 ^.e K w.h 9.0.a.b.c.a.1 ^.e K w.h 9.0.a.b.c.a.1 ^.e {.E.h 3 ! + & ",
"$ + c d e 8.v h 9.0.a.b.c.a.1 ^.e K w.h 9.0.a.b.c.a.1 ^.e K w.h 9.0.a.b.c.a.1 ^.e {.E.h 3 ! + & ",
"$ + c d e 8.v h 9.0.a.b.c.a.1 ^.e K w.h 9.0.a.b.c.a.1 ^.e K w.h 9.0.a.b.c.a.1 ^.e {.E.h 3 ! + & ",
"$ + c d e 8.v h 9.0.a.b.c.a.1 ^.e K w.h 9.0.a.b.c.a.1 ^.e K w.h 9.0.a.b.c.a.1 ^.e {.E.h 3 ! + & ",
"$ + c d e 8.v h 9.0.a.b.c.a.1 ^.e K w.h 9.0.a.b.c.a.1 ^.e K w.h 9.0.a.b.c.a.1 ^.e {.E.h 3 ! + & ",
"$ + c d e 8.v h 9.0.a.b.c.a.1 ^.e K w.h 9.0.a.b.c.a.1 ^.e K w.h 9.0.a.b.c.a.1 ^.e {.E.h 3 ! + & ",
"$ + c d e 8.v h 9.0.a.b.c.a.1 ^.e K w.h 9.0.a.b.c.a.1 ^.e K w.h 9.0.a.b.c.a.1 ^.e {.E.h 3 ! + & ",
"$ + F.G.D q.H.I.J.K.k.L.a k.1.T D f y I.J.K.k.L.a k.1.T D f y I.J.K.k.L.a k.1.T D M.N.I.m.( + # ",
"p + O.P.s Q.R.S.l T.U.V.a.U.W.K s F o.S.l T.U.V.a.U.W.K s F o.S.l T.U.V.a.U.W.K s 5.X.S.Y.Z.+ # ",
"$ + c d e 8.v h 9.0.a.b.c.a.1 ^.e K w.h 9.0.a.b.c.a.1 ^.e K w.h 9.0.a.b.c.a.1 ^.e {.E.h 3 ! + & ",
"& + [ `.|  +.+6 ++@+#+$+%+#+&+*+| 2.=+6 ++@+#+$+%+#+&+*+| 2.=+6 ++@+#+$+%+#+&+*+| -+;+6 >+,++ = ",
"@ + '+> , ' )+] ~ !+~+{+]+~+( ^+, /+(+] ~ !+~+{+]+~+( ^+, /+(+] ~ !+~+{+]+~+( ^+, _+:+] <+[++ - ",
"+ + + + + + + + + + + + + + + + + + + + + + + + + + + + + + + + + + + + + + + + + + + + + + + + ",
". + @ # $ $ % & }+|+|+|+|+|+& ).$ 1+% & }+|+|+|+|+|+& ).$ 1+% & }+|+|+|+|+|+& ).$ 1+).& 2+3++ + "};
