/* XPM */
static char * door_01_xpm[] = {
"48 48 99 2",
"  	c None",
". 	c #5E5A60",
"+ 	c #5D595F",
"@ 	c #59555A",
"# 	c #534F54",
"$ 	c #4F4B50",
"% 	c #4E4A4F",
"& 	c #4F4A4F",
"* 	c #504C51",
"= 	c #514D51",
"- 	c #514D52",
"; 	c #4F4B4F",
"> 	c #524E53",
", 	c #5F5B61",
"' 	c #5B575C",
") 	c #565258",
"! 	c #625E65",
"~ 	c #635F65",
"{ 	c #636066",
"] 	c #635F66",
"^ 	c #605D63",
"/ 	c #5D595E",
"( 	c #5C585E",
"_ 	c #605C62",
": 	c #646066",
"< 	c #646067",
"[ 	c #575459",
"} 	c #67636A",
"| 	c #69656B",
"1 	c #6D6970",
"2 	c #736F76",
"3 	c #77747B",
"4 	c #79767E",
"5 	c #7A777F",
"6 	c #79767D",
"7 	c #726F76",
"8 	c #6A666D",
"9 	c #656168",
"0 	c #69656C",
"a 	c #716D75",
"b 	c #7B7880",
"c 	c #6C6970",
"d 	c #6B676E",
"e 	c #747178",
"f 	c #7F7B84",
"g 	c #86838C",
"h 	c #89868F",
"i 	c #7E7A83",
"j 	c #8A8790",
"k 	c #8B8891",
"l 	c #6C686F",
"m 	c #6E6A71",
"n 	c #77737B",
"o 	c #838088",
"p 	c #8B8892",
"q 	c #87848D",
"r 	c #827F88",
"s 	c #7B7780",
"t 	c #6F6B72",
"u 	c #76727A",
"v 	c #827E87",
"w 	c #8A8791",
"x 	c #726E76",
"y 	c #827F87",
"z 	c #8E8B95",
"A 	c #88858E",
"B 	c #8D8A94",
"C 	c #76737A",
"D 	c #716E75",
"E 	c #817E87",
"F 	c #85828B",
"G 	c #7D7A82",
"H 	c #757279",
"I 	c #807D86",
"J 	c #706D74",
"K 	c #68646B",
"L 	c #757179",
"M 	c #807D85",
"N 	c #747078",
"O 	c #6A656C",
"P 	c #78757D",
"Q 	c #807C85",
"R 	c #726E75",
"S 	c #69646B",
"T 	c #706C74",
"U 	c #737077",
"V 	c #716D74",
"W 	c #7C7880",
"X 	c #848189",
"Y 	c #79757D",
"Z 	c #88858F",
"` 	c #84818A",
" .	c #7C7981",
"..	c #7C7881",
"+.	c #676369",
"@.	c #77747C",
"#.	c #817D86",
"$.	c #8C8993",
"%.	c #7D7982",
". + @ # $ % & $ * = - = * $ $ $ $ * = - = * $ $ $ $ * = - = * $ $ $ $ * = - = * $ $ ; $ * > # # ",
", . ' ) # > # # # # # # # # # # # # # # # # # # # # # # # # # # # # # # # # # # # # # # # # # # ",
"! ! ! ! ! ~ { ] ^ / ' ( _ ! { : ] ^ / ' ( _ ! ] ] ! _ ( ' / ^ ] : { ! _ ( ' / ^ ] < : ! . [ # > ",
"} | 1 2 3 4 5 6 7 8 9 0 a 3 4 5 6 7 8 9 0 a 3 4 4 3 a 0 9 8 7 6 5 4 3 a 0 9 8 7 6 b b 3 c . # * ",
"d 1 e f g h h g i 2 1 2 i g h h g i 2 1 2 i g h h g i 2 1 2 i g h h g i 2 1 2 i g j k g 3 ! # $ ",
"l m n o k p q r s 7 t u v j w q r b x t u y k z z k y u t x b r q w j v u t 7 s r A B k b : # ; ",
"d m n o j g i C D m m u E A F G C D m m u E j B B j E u m m D C G F A E u m m D C f A j b < # $ ",
"d 1 H I g I H 1 8 8 1 H I g I H 1 8 8 1 e f g h h g f e 1 8 8 1 H I g I H 1 8 8 1 C r g 6 ] # $ ",
"l 1 2 5 i 4 J 8 K | l L I g M N d | O l D P i Q Q i P D l O | d N M g I L l | K 8 D s i 7 ^ # * ",
"1 1 t R 2 J 1 8 | S d N M g I L l O 8 d 1 T 2 U U 2 T 1 d 8 O l L I g M N d S | 8 m 7 2 8 / # = ",
"1 1 1 1 1 1 1 1 l d 1 H I g I H 1 d l 1 1 1 1 1 1 1 1 1 1 l d 1 H I g I H 1 d l 1 m t 1 9 ' # - ",
"1 1 t V 2 N L H L N H W X q I L 1 1 a e L N U U U U N L e a 1 1 L I q X W H N L H u u 2 0 ( # = ",
"l 1 R Y i Q I I I M I X A A M N 1 T P f M M Q Q Q Q M M f P T 1 N M A A X I M I I E v i a _ # * ",
"d 1 e f g A q g g g g q A g i 2 1 2 i g A q g g g g q A g i 2 1 2 i g A q g g g g A j g 3 ! # $ ",
"d 1 u E h Z ` I M I I I M i 3 t l U Q A A X I Q Q I X A A Q U l t 3 i M I I I M I F w h 4 { # $ ",
"d 1 u r h F  .H N L H L N 2 t d d U Q q ` W H U U H W ` q Q U d d t 2 N L H L N H G q h 5 : # $ ",
"d 1 H I g I H 1 d l 1 1 1 1 l d 1 H I g I H 1 8 8 1 H I g I H 1 d l 1 1 1 1 l d 1 C r g 6 ] # $ ",
"l 1 2 5 i 4 V 8 | O d 1 T 2 U U H ..` q Q U 8 +.+.8 U Q q ` ..H U U 2 T 1 d O | 8 D b i 7 ^ # * ",
"1 1 t R 2 J 1 8 O 8 l a P i Q Q I ` A A Q U 8 +.+.8 U Q A A ` I Q Q i P a l 8 O 8 m x 2 8 / # = ",
"1 1 1 1 1 1 1 1 l d 1 e f g A q g q A g f e 1 8 8 1 e f g A q g q A g f e 1 d l 1 m t 1 9 ' # - ",
"1 1 t V 2 N L e D 1 1 L M A A ` I Q Q f b @.e U U e @.b f Q Q I ` A A M L 1 1 D e u u 2 0 ( # = ",
"l 1 R Y i M I f P T 1 N M q X W H U U e @.W f Q Q f W @.e U U H W X q M N 1 T P f E y i a _ # * ",
"d 1 e f g h h g i 2 1 U Q g I H 1 8 8 1 e f g h h g f e 1 8 8 1 H I g Q U 1 2 i g j k g 3 ! # $ ",
"d 1 H #.h $.$.h Q U 1 U Q g Q U 8 +.+.8 U Q h $.$.h Q U 8 +.+.8 U Q g Q U 1 U Q h B z h 4 ] # $ ",
"d 1 H #.h $.$.h Q U 1 U Q g Q U 8 +.+.8 U Q h $.$.h Q U 8 +.+.8 U Q g Q U 1 U Q h B z h 4 ] # $ ",
"d 1 e f g h h g i 2 1 U Q g I H 1 8 8 1 e f g h h g f e 1 8 8 1 H I g Q U 1 2 i g j k g 3 ! # $ ",
"l 1 R Y i M I f P T 1 N M q X W H U U e @.W f Q Q f W @.e U U H W X q M N 1 T P f E y i a _ # * ",
"1 1 t V 2 N L e D 1 1 L M A A ` I Q Q f b @.e U U e @.b f Q Q I ` A A M L 1 1 D e u u 2 0 ( # = ",
"1 1 1 1 1 1 1 1 l d 1 e f g A q g q A g f e 1 8 8 1 e f g A q g q A g f e 1 d l 1 m t 1 9 ' # - ",
"1 1 t R 2 J 1 8 O 8 l a P i Q Q I ` A A Q U 8 +.+.8 U Q A A ` I Q Q i P a l 8 O 8 m x 2 8 / # = ",
"l 1 2 5 i 4 V 8 | O d 1 T 2 U U H ..` q Q U 8 +.+.8 U Q q ` ..H U U 2 T 1 d O | 8 D b i 7 ^ # * ",
"d 1 H I g I H 1 d l 1 1 1 1 l d 1 H I g I H 1 8 8 1 H I g I H 1 d l 1 1 1 1 l d 1 C r g 6 ] # $ ",
"d 1 u r h F  .H N L H L N 2 t d d U Q q ` W H U U H W ` q Q U d d t 2 N L H L N H G q h 5 : # $ ",
"d 1 u E h Z ` I M I I I M i 3 t l U Q A A X I Q Q I X A A Q U l t 3 i M I I I M I F w h 4 { # $ ",
"d 1 e f g A q g g g g q A g i 2 1 2 i g A q g g g g q A g i 2 1 2 i g A q g g g g A j g 3 ! # $ ",
"l 1 R Y i Q I I I M I X A A M N 1 T P f M M Q Q Q Q M M f P T 1 N M A A X I M I I E v i a _ # * ",
"1 1 t V 2 N L H L N H W X q I L 1 1 a e L N U U U U N L e a 1 1 L I q X W H N L H u u 2 0 ( # = ",
"1 1 1 1 1 1 1 1 l d 1 H I g I H 1 d l 1 1 1 1 1 1 1 1 1 1 l d 1 H I g I H 1 d l 1 m t 1 9 ' # - ",
"1 1 t R 2 J 1 8 | S d N M g I L l O 8 d 1 T 2 U U 2 T 1 d 8 O l L I g M N d S | 8 m 7 2 8 / # = ",
"l 1 2 5 i 4 J 8 K | l L I g M N d | O l D P i Q Q i P D l O | d N M g I L l | K 8 D s i 7 ^ # * ",
"d 1 H I g I H 1 8 8 1 H I g I H 1 8 8 1 e f g h h g f e 1 8 8 1 H I g I H 1 8 8 1 C r g 6 ] # $ ",
"d 1 u r h F %.H J 1 1 L I q `  .H V 1 1 L I h $.$.h I L 1 1 V H  .` q I L 1 1 J H i q h 5 { # & ",
"d 1 u E h h F I 4 J 1 N Q A Z F I 4 J 1 N M h $.$.h M N 1 J 4 I F Z A Q N 1 J 4 I g p h 4 ~ > % ",
"d 1 e f g h h g i 2 1 2 i g h h g i 2 1 2 i g h h g i 2 1 2 i g h h g i 2 1 2 i g j k g 3 ! # $ ",
"l 1 x 4 f E r I 5 R 1 V Y f E r I 5 R 1 V Y f #.#.f Y V 1 R 5 I r E f Y V 1 R 5 I o o f 2 ! ) # ",
"l 1 t x e u u H 2 t 1 t R e u u H 2 t 1 t R e H H e R t 1 t 2 H u u e R t 1 t 2 H n n e 1 ! ' @ ",
"1 1 1 1 1 1 1 1 1 1 1 1 1 1 1 1 1 1 1 1 1 1 1 1 1 1 1 1 1 1 1 1 1 1 1 1 1 1 1 1 1 m m 1 | ! . + ",
"1 1 l l d d d d l 1 1 1 l d d d d l 1 1 1 l d d d d l 1 1 1 l d d d d l 1 1 1 l d d l d } ! , . "};
