/* XPM */
static char * enemy_02_xpm[] = {
"48 48 19 1",
" 	c None",
".	c #3C3C3F",
"+	c #444C68",
"@	c #4D5D93",
"#	c #5670CA",
"$	c #ADC818",
"%	c #C4ED1F",
"&	c #CDFF71",
"*	c #884C91",
"=	c #D376E0",
"-	c #E580F1",
";	c #9288B7",
">	c #00673D",
",	c #009751",
"'	c #01DC6E",
")	c #38F7A7",
"!	c #B784D2",
"~	c #C36DD1",
"{	c #B565C0",
"                                                ",
"                                                ",
"                                                ",
"                                                ",
"                                                ",
"                                                ",
"                                                ",
"                                                ",
"                                                ",
"                    .......                     ",
"                  ..++@@@++..                   ",
"                 .++@@@@@@@++.                  ",
"                .++@@#####@@++.                 ",
"                .+@@#######@@+.                 ",
"                .+@#########@+.                 ",
"             ...$$@#########@$$...              ",
"           ..+++$%%%%&&&&&%%%%$+++..            ",
"          .++@@@@@%%&&&&&&&%%@@@@@++.           ",
"           .++@#################@++.            ",
"            ...++@@#########@@++...             ",
"              *.....+++++++.....*               ",
"              *=---------------=*               ",
"              *=-----;>--------=*               ",
"              *=---;,,,--------=*               ",
"              *=--,')',--------=*               ",
"              *=--!,',---------=*               ",
"              *=---------------=*               ",
"             *~{=---=---------==*               ",
"             *~*=--*----------=~*               ",
"             *{*=-*--~*~-----=={*               ",
"              **~=*-=*------==~*                ",
"               *{~=**========~{*                ",
"                *{~=========~{****              ",
"                *{{~=======~{{{{{{* *           ",
"                 *{{{~~~~~{{{{{{{{{*{*          ",
"                  *{{{{{{{{{{{{{**{{{*          ",
"                   **{{{{{{{{{**  ***           ",
"                     *********                  ",
"                                                ",
"                                                ",
"                                                ",
"                                                ",
"                                                ",
"                                                ",
"                                                ",
"                                                ",
"                                                ",
"                                                "};
