/* XPM */
static char * player_02_xpm[] = {
"48 48 398 2",
"  	c #668B46",
". 	c #618744",
"+ 	c #577D3E",
"@ 	c #638945",
"# 	c #557A3E",
"$ 	c #628944",
"% 	c #658C48",
"& 	c #5C8341",
"* 	c #4C7339",
"= 	c #567B3E",
"- 	c #5A8040",
"; 	c #608443",
"> 	c #5D8040",
", 	c #668B48",
"' 	c #587E3F",
") 	c #5B8140",
"! 	c #486D36",
"~ 	c #577E3D",
"{ 	c #608544",
"] 	c #5D8441",
"^ 	c #628844",
"/ 	c #50763B",
"( 	c #5A8140",
"_ 	c #5C8241",
": 	c #4F743A",
"< 	c #597F40",
"[ 	c #55793E",
"} 	c #4E7039",
"| 	c #4E723A",
"1 	c #638A46",
"2 	c #628644",
"3 	c #5E8442",
"4 	c #51783C",
"5 	c #4B7139",
"6 	c #4A7139",
"7 	c #5B8041",
"8 	c #618644",
"9 	c #648A45",
"0 	c #5C8242",
"a 	c #6C924A",
"b 	c #4E743A",
"c 	c #6B9049",
"d 	c #486E37",
"e 	c #50753B",
"f 	c #56793E",
"g 	c #567C3E",
"h 	c #557B3D",
"i 	c #577A3E",
"j 	c #58803F",
"k 	c #608643",
"l 	c #699049",
"m 	c #5F8744",
"n 	c #5A813F",
"o 	c #648B46",
"p 	c #668B47",
"q 	c #688E47",
"r 	c #658A46",
"s 	c #5E8541",
"t 	c #557B3E",
"u 	c #4E743B",
"v 	c #476D36",
"w 	c #5E8441",
"x 	c #5A7F3F",
"y 	c #658B47",
"z 	c #5D8341",
"A 	c #5C8140",
"B 	c #638845",
"C 	c #6A914A",
"D 	c #6F934B",
"E 	c #73934A",
"F 	c #698C48",
"G 	c #5D8342",
"H 	c #658B46",
"I 	c #698F48",
"J 	c #608743",
"K 	c #72954B",
"L 	c #6C9049",
"M 	c #4F743B",
"N 	c #5D8240",
"O 	c #547A3D",
"P 	c #52773E",
"Q 	c #577E3F",
"R 	c #51763C",
"S 	c #5A7E3F",
"T 	c #658A47",
"U 	c #608845",
"V 	c #6A9048",
"W 	c #6B9149",
"X 	c #5E8542",
"Y 	c #638B45",
"Z 	c #628743",
"` 	c #608644",
" .	c #6A9049",
"..	c #658B45",
"+.	c #648945",
"@.	c #668C47",
"#.	c #618743",
"$.	c #5C8441",
"%.	c #6C9249",
"&.	c #678E47",
"*.	c #4C713A",
"=.	c #598040",
"-.	c #638946",
";.	c #658A45",
">.	c #608846",
",.	c #628A45",
"'.	c #557C3E",
").	c #5D8442",
"!.	c #567A3D",
"~.	c #52733A",
"{.	c #597D3F",
"].	c #5B813F",
"^.	c #5F8443",
"/.	c #567E3E",
"(.	c #4E753C",
"_.	c #587F3F",
":.	c #6B904A",
"<.	c #547B3D",
"[.	c #577D3F",
"}.	c #52753B",
"|.	c #506D37",
"1.	c #5B7F3F",
"2.	c #5E8242",
"3.	c #648A46",
"4.	c #618843",
"5.	c #446A35",
"6.	c #4D7238",
"7.	c #53783C",
"8.	c #5B7E3F",
"9.	c #5D8343",
"0.	c #446332",
"a.	c #4E6936",
"b.	c #5F8542",
"c.	c #587E3E",
"d.	c #4D7439",
"e.	c #4D7339",
"f.	c #5D8340",
"g.	c #446935",
"h.	c #5E8543",
"i.	c #547A3E",
"j.	c #5B803F",
"k.	c #5C7F40",
"l.	c #6A9149",
"m.	c #51783D",
"n.	c #587F40",
"o.	c #4F763C",
"p.	c #4D743B",
"q.	c #587C3E",
"r.	c #5A7C3E",
"s.	c #6B8F48",
"t.	c #668845",
"u.	c #688D48",
"v.	c #567C3F",
"w.	c #587D40",
"x.	c #436935",
"y.	c #628845",
"z.	c #5B7F41",
"A.	c #5E8643",
"B.	c #70944A",
"C.	c #70934A",
"D.	c #6D914A",
"E.	c #597F3F",
"F.	c #567D3F",
"G.	c #5A8142",
"H.	c #638A45",
"I.	c #628945",
"J.	c #6A904A",
"K.	c #9C5369",
"L.	c #5A7F40",
"M.	c #5F8644",
"N.	c #678E48",
"O.	c #698D48",
"P.	c #537A3D",
"Q.	c #436836",
"R.	c #658C47",
"S.	c #6B924B",
"T.	c #688C48",
"U.	c #5A803F",
"V.	c #668A47",
"W.	c #534721",
"X.	c #E07993",
"Y.	c #598240",
"Z.	c #5A8240",
"`.	c #486F37",
" +	c #608843",
".+	c #587E40",
"++	c #567E3F",
"@+	c #53793C",
"#+	c #567D3E",
"$+	c #557D3E",
"%+	c #577B3E",
"&+	c #618844",
"*+	c #557C3F",
"=+	c #FFD600",
"-+	c #FECBD0",
";+	c #FFA3B0",
">+	c #577B3D",
",+	c #4F6D36",
"'+	c #4F783D",
")+	c #5B8141",
"!+	c #53793E",
"~+	c #476C37",
"{+	c #5F8543",
"]+	c #678C47",
"^+	c #577D3D",
"/+	c #5E8341",
"(+	c #5F8643",
"_+	c #5E8642",
":+	c #688E48",
"<+	c #608744",
"[+	c #5E8443",
"}+	c #C79D00",
"|+	c #E3B700",
"1+	c #FFFC00",
"2+	c #53793D",
"3+	c #436734",
"4+	c #59793D",
"5+	c #58783D",
"6+	c #51733A",
"7+	c #52763C",
"8+	c #597E3F",
"9+	c #466835",
"0+	c #456634",
"a+	c #4B6E37",
"b+	c #4A7037",
"c+	c #4D733B",
"d+	c #668E48",
"e+	c #638944",
"f+	c #587D3F",
"g+	c #588040",
"h+	c #C70000",
"i+	c #FF2627",
"j+	c #5B8242",
"k+	c #547A3F",
"l+	c #537A3E",
"m+	c #4B7137",
"n+	c #5D8242",
"o+	c #6C9149",
"p+	c #4B7239",
"q+	c #5B7E3E",
"r+	c #658946",
"s+	c #547C3D",
"t+	c #658D46",
"u+	c #5F8442",
"v+	c #59803F",
"w+	c #608542",
"x+	c #598140",
"y+	c #598141",
"z+	c #678C46",
"A+	c #6F954B",
"B+	c #638745",
"C+	c #698F49",
"D+	c #4F753B",
"E+	c #4F733A",
"F+	c #53743B",
"G+	c #648946",
"H+	c #54773C",
"I+	c #456935",
"J+	c #55723A",
"K+	c #4A6434",
"L+	c #699048",
"M+	c #71924A",
"N+	c #5F8743",
"O+	c #51773C",
"P+	c #658945",
"Q+	c #426232",
"R+	c #4D723B",
"S+	c #506B35",
"T+	c #50793D",
"U+	c #4B713A",
"V+	c #628744",
"W+	c #618945",
"X+	c #4A7039",
"Y+	c #557A3D",
"Z+	c #53773D",
"`+	c #577E3E",
" @	c #567D3D",
".@	c #608242",
"+@	c #6E934A",
"@@	c #5D8140",
"#@	c #678D48",
"$@	c #6A9148",
"%@	c #5E8342",
"&@	c #4C7139",
"*@	c #4F763B",
"=@	c #52783B",
"-@	c #6D934B",
";@	c #71944B",
">@	c #6D9049",
",@	c #567C3D",
"'@	c #70974C",
")@	c #51713A",
"!@	c #4B6835",
"~@	c #6F964B",
"{@	c #70964B",
"]@	c #698E49",
"^@	c #628843",
"/@	c #698E48",
"(@	c #547D3E",
"_@	c #608844",
":@	c #648A44",
"<@	c #4B6D37",
"[@	c #4E6F38",
"}@	c #5F8441",
"|@	c #597D3E",
"1@	c #4D6E37",
"2@	c #567A3E",
"3@	c #4F6F38",
"4@	c #56753B",
"5@	c #EEBE93",
"6@	c #FFE1AF",
"7@	c #436A35",
"8@	c #466834",
"9@	c #527239",
"0@	c #54743C",
"a@	c #50733B",
"b@	c #55743B",
"c@	c #56793C",
"d@	c #618543",
"e@	c #4F6F37",
"f@	c #446834",
"g@	c #5A2853",
"h@	c #4D713A",
"i@	c #688B46",
"j@	c #628541",
"k@	c #52783C",
"l@	c #638B44",
"m@	c #5B8040",
"n@	c #5E7F3F",
"o@	c #5C8342",
"p@	c #638844",
"q@	c #5A7E41",
"r@	c #749A4E",
"s@	c #CCD0CE",
"t@	c #181626",
"u@	c #CECECE",
"v@	c #9D704C",
"w@	c #50783C",
"x@	c #71954C",
"y@	c #648B47",
"z@	c #72974B",
"A@	c #638A44",
"B@	c #5B8240",
"C@	c #658C46",
"D@	c #597F41",
"E@	c #D7906E",
"F@	c #828189",
"G@	c #F4F4F4",
"H@	c #5C8340",
"I@	c #52773C",
"J@	c #5D8241",
"K@	c #577C3E",
"L@	c #4C713B",
"M@	c #5B7D3F",
"N@	c #54733B",
"O@	c #55783D",
"P@	c #9F17AD",
"Q@	c #5B8341",
"R@	c #668D47",
"S@	c #466836",
"T@	c #A0A0A0",
"U@	c #5F5F5F",
"V@	c #FFFFFF",
"W@	c #3DFD67",
"X@	c #2EB545",
"Y@	c #15454A",
"Z@	c #1D796D",
"`@	c #E8E8E8",
" #	c #C2C2C2",
".#	c #2F2F2F",
"+#	c #6DFFA3",
"@#	c #2BB68E",
"##	c #132529",
"$#	c #557D3D",
"%#	c #5D8041",
"&#	c #53783D",
"*#	c #557A3C",
"=#	c #52773D",
"-#	c #52793B",
";#	c #577F3F",
">#	c #6A8F4A",
",#	c #6F944A",
"'#	c #55733B",
")#	c #648944",
"!#	c #5C8442",
"~#	c #678E49",
"{#	c #6A8F49",
"]#	c #648B45",
"^#	c #5A8041",
"/#	c #638B47",
"(#	c #688D47",
"_#	c #4C743A",
":#	c #5D7E40",
"<#	c #54743B",
"[#	c #608543",
"}#	c #5B8241",
"|#	c #466A36",
"1#	c #587F3E",
"  . + @ # $ % & * = - ; > , . ' ) ! ~ { ] ^ / (   . + @ # $ % & * = - ; > , . ' ) ! ~ { ] ^ / - ",
"_ : < [ . ( } | 1 2 3 ] 4 5 6 + 7 ^ 8 9 & 0 _ a ( b < [ . ( } | 1 2 3 ] 4 5 6 + 7 ^ 8 9 & 0 _ c ",
"d e ; f g h i j k l m n o _ p q ) ' r s t u 3 3 v e ; f g h i j k l m n o _ p q ) ' r s t u 3 w ",
"x y z A ] B C D E F G H C I J K L M N ^ O P Q R S T z A ] B C D E F G H C I J K L M N ^ O P Q R ",
"U V W X Y H Z ` r  .o ..+.@.#.$.%.&.*.=.g -.;.& >.V W X Y H Z ` r  .o ..+.@.#.$.%.&.*.=.g -.;.z ",
"^ ,.O '.).!.~.{.].].` #.^.G h /.( + [ (._.;.#.( @ 1 O '.).!.~.{.].].` #.^.G h /.( + [ (._.;.#.- ",
":.<.[.#.}.|.1.2.3.( 4.Q 5.6.7.8.9.0.a.8 b.c.d.w C <.[.#.}.|.1.2.3.( 4.Q 5.6.7.8.9.0.a.8 b.c.e.f.",
"{.g.h.i.j.k.l.m.M n.w o.p.q.r.) s.t.o  .u.J v.-.w.x.h.i.j.k.l.m.M n.w o.p.q.r.) s.t.o  .u.J '.y.",
"z.A.h.^ B.C.D.I & E.' F.G.H.I.J ^.I J.K.K.K.K.K.L.h.h.^ K.K.K.K.& E.' F.G.H.I.J ^.I J.M..   N.z ",
"O.P.Q.R.( < S.@ 3.T.U.y.V.p W.j K.K.K.X.X.X.X.X.K.K.K.K.X.X.X.X.K.T.U.y.V.p Y.j Z.^ ] `.^.y. +@ ",
"+..+e ++@+#+$+k _.%+&+& *+W.=+W.X.W.-+;+;+;+;+;+-+;+K.X.;+;+;+;+X.K.&+& *+v.>+,+%+g '+)+!+~+{+]+",
"^+#+/+(+r ]+_+- p :+<+[+W.}+|+=+W.1+W.;+;+;+;+;+;+-+K.;+-+;+;+;+-+X.K.[+2+3+4+5+6+7+8+* 9+0+a+k ",
"b+c+ .T +.d+{+<+e+, f+g+W.}+h+|+|+i+1+W.;+;+;+;+;+-+K.X.;+-+-+-+;+;+K.g+j+k+l+m+n+o+O p+q+r+u.s+",
"t+J. .u+f+_ {+v+w+x+y+K.X.;+;+;+;+|+|+=+;+;+;+;+-+-+;+K.X.;+-+;+;+;+K.).z+A+@ B+ .C+@ 9 @.W @ r ",
"x t G D+Z.E+F+G+H+I+n+K.;+;+;+;+;+;+-+-+-+-+-+-+-+;+;+;+K.;+;+;+;+;+K.J+K+r+L+M+L y.N+U.D+O+i.^ ",
"~ P+3.) E._ Q+R+$.].K.X.;+X.;+;+;+;+;+;+;+;+;+;+;+;+;+;+K.;+;+;+;+;+K.S+u+T+U+m @.V+W+O.H #+X+v.",
"Y+Z+#.`+ @I..@t.+@]+K.X.;+X.;+;+X.;+;+X.;+;+X.;+;+;+;+;+K.;+;+;+;+;+K.@@#@G.$@H %@o ,.&@*@{+m.1 ",
"=@_ (+ .. H -@;@>@m K.X.X.X.;+;+X.;+;+X.;+;+;+X.;+X.;+;+K.;+;+;+;+;+K.,@<+'@H )@!@[ (+. ~@{@'.i.",
"]@+@L+^@/@c I.v+.+H.(@K.X.X.X.X.X.X.X.X.X.;+;+X.X.X.X.;+;+K.;+;+;+;+;+K._@:@<@[@}@|@1@@ ]+m.P.=.",
"T e+#@. k Q H+2@L.3@4@g K.W.5@5@6@6@6@6@6@X.;+X.W.W.X.X.;+K.;+;+;+;+;+K.7@| >+H+8@9@0@%@D+a@b@T ",
"+ ^.B ^ v.m.# c@d@I.e@f@v.W.5@6@6@g@g@g@g@6@X.X.5@6@W.X.;+K.X.;+;+;+;+K.v.  q h@i@D.8+%+| j@f.v+",
"k@]@l@= m@n@7 o@p@x+*@q@r@W.5@6@6@s@t@u@g@g@6@X.v@6@W.X.X.K.X.;+;+;+X.K.r@0 w@x@^ y@z@/+{+:+C+A@",
"C+_ B@#+9 C@+./@D@. 8 . J W.E@6@6@F@t@G@g@6@6@X.v@5@W.X.X.K.X.X.;+;+X.K.J '.. y@H@y.C@` @.;.u.V+",
":@. I@_+G.J@[.K@U+L@M@N@O@W.v@5@6@P@P@6@6@6@6@X.E@W.X.X.X.K.X.X.;+;+X.K.O@d@Q Q@R@[+S@D+$.#.`+' ",
"  . + @ # $ % & * = - ; > , W.E@5@6@6@6@6@6@5@E@E@K.X.X.K.K.K.X.;+;+X.K.> , . ' ) ! ~ { ] ^ / - ",
"_ : < [ . ( } | 1 2 3 ] 4 5 6 W.v@E@E@5@5@5@E@E@v@v@K.K.X.K.K.X.X.;+K.] 4 5 6 + 7 ^ 8 9 & 0 _ c ",
"d e ; f g h i j k l m n o _ p q W.W.W.W.W.W.W.W.T@T@U@U@X.K.V@K.X.X.K.n o _ p q ) ' r s t u 3 w ",
"x y z A ] B C D E F G H C I J K W.5@6@6@W@X@Y@Z@Z@`@`@ #U@X.K.K.X.X.K.H C I J K L M N ^ O P Q R ",
"U V W X Y H Z ` r  .o ..+.@.#..#X@W@+#+#W@T@ #`@@#Z@ #`@T@U@K.` K.X.X.K.+.@.#.$.%.&.*.=.g -.;.z ",
"^ ,.O '.).!.~.{.].].` #.^.G h .#Y@Z@@#@#@###@# #`@@#Z@T@T@U@~.{.].K.X.K.^.G h /.( + [ (._.;.#.- ",
":.<.[.#.}.|.1.2.3.( 4.Q 5.6.7.8.##Y@Y@Y@W.W@@#@# #`@@#Z@Y@Y@##2.3.( K.Q 5.6.7.8.9.0.a.8 b.c.e.f.",
"{.g.h.i.j.k.l.m.M n.w o.p.q.r.) Y@Z@W@W.6@6@W@Z@Z@ #`@Z@Z@Y@##m.M n.w o.p.q.r.) s.t.o  .u.J '.y.",
"z.A.h.^ B.C.D.I & E.' F.G.H.I..#X@W@Z@W.6@6@X@Y@####`@@#Z@Z@Y@##& E.' F.G.H.I.J ^.I J.M..   N.z ",
"O.P.Q.R.( < S.@ 3.T.U.y.V.p U@T@T@T@@#W.E@5@E@W.Y@## #`@@#Z@Y@##U@T.U.y.V.p Y.j Z.^ ] `.^.y. +@ ",
"+..+e ++@+#+$+k _.%+&+& *+U@T@T@ #`@ #@#W.W.W.Z@Z@Y@##`@@#@#Y@Y@##U@U@& *+v.>+,+%+g '+)+!+~+{+]+",
"^+#+/+(+r ]+_+- p :+<+[+U@T@U@T@ # #T@@#@#@#@#@#@#Z@Y@ #`@@#Z@Y@####T@U@2+3+4+5+6+7+8+* 9+0+a+k ",
"b+c+ .T +.d+{+<+e+, f+g+U@T@T@ #`@`@`@`@Z@@#@#@#@#Z@Y@U@ #`@`@`@ #T@T@U@j+k+l+m+n+o+O p+q+r+u.s+",
"t+J. .u+f+_ {+v+w+x+y+).z+U@T@T@ # #`@`@Z@Z@Z@Z@Y@Y@####U@U@T@ #T@U@U@).z+A+@ B+ .C+@ 9 @.W @ r ",
"x t G D+Z.E+F+G+H+I+n+J+K+r+L+M+L y.N+U.D+O+# @ E.# o@D+Z.E+F+G+H+I+n+J+K+r+L+M+L y.N+U.D+O+i.^ ",
"~ P+3.) E._ Q+R+$.].%+S+u+T+U+m @.V+W+O.H #+5 [.$#+.3.) E._ Q+R+$.].%+S+u+T+U+m @.V+W+O.H #+X+v.",
"Y+Z+#.`+ @I..@t.+@]+%#@@#@G.$@H %@o ,.&@*@{+&#y *#=#J `+ @I..@t.+@]+%#@@#@G.$@H %@o ,.&@*@{+m.1 ",
"=@_ (+ .. H -@;@>@m #.,@<+'@H )@!@[ (+. ~@{@'.i.-#& (+ .. H -@;@>@m #.,@<+'@H )@!@[ (+. ~@{@'.i.",
"]@+@L+^@/@c I.v+.+H.(@<+_@:@<@[@}@|@1@@ ]+m.2+;#>#,#L+^@/@c I.v+.+H.(@<+_@:@<@[@}@|@1@@ ]+m.P.=.",
"T e+#@. k Q H+2@L.3@4@g 7@| >+H+8@9@0@%@D+a@'#G+p )##@. k Q H+2@L.3@4@g 7@| >+H+8@9@0@%@D+a@b@T ",
"+ ^.B ^ v.m.# c@d@I.e@f@v.  q h@i@D.8+%+| j@f.v+[.^.B ^ v.m.# c@d@I.e@f@v.  q h@i@D.8+%+| j@f.v+",
"k@]@l@= m@n@7 !#e+x+*@q@r@0 w@x@^ y@z@/+{+:+C+H.k@~#l@= m@n@7 !#e+x+*@q@r@0 w@x@^ y@z@/+{+:+C+A@",
"{#_ B@#+]#R@r+I ^#. 8 . <+'.. /#H@y.C@` ]+;.(#V+J.0 B@#+]#R@r+I ^#. 8 . <+'.. /#H@y.C@` ]+;.u.p@",
"^ J I@N+j+X < < _#p.:#<#O@[#[.}#R@[+|#/ X Z 1#_.;.. I@N+j+X < < _#p.:#<#O@[#[.}#R@[+|#/ X V+E.- "};
