/* XPM */
static char * player_03_xpm[] = {
"48 48 397 2",
"  	c #668B46",
". 	c #618744",
"+ 	c #577D3E",
"@ 	c #638945",
"# 	c #557A3E",
"$ 	c #628944",
"% 	c #658C48",
"& 	c #5C8341",
"* 	c #4C7339",
"= 	c #567B3E",
"- 	c #5A8040",
"; 	c #608443",
"> 	c #5D8040",
", 	c #668B48",
"' 	c #587E3F",
") 	c #5B8140",
"! 	c #486D36",
"~ 	c #577E3D",
"{ 	c #608544",
"] 	c #5D8441",
"^ 	c #628844",
"/ 	c #50763B",
"( 	c #5A8140",
"_ 	c #5C8241",
": 	c #4F743A",
"< 	c #597F40",
"[ 	c #55793E",
"} 	c #4E7039",
"| 	c #4E723A",
"1 	c #638A46",
"2 	c #628644",
"3 	c #5E8442",
"4 	c #51783C",
"5 	c #4B7139",
"6 	c #4A7139",
"7 	c #5B8041",
"8 	c #618644",
"9 	c #648A45",
"0 	c #5C8242",
"a 	c #6C924A",
"b 	c #4E743A",
"c 	c #6B9049",
"d 	c #486E37",
"e 	c #50753B",
"f 	c #56793E",
"g 	c #567C3E",
"h 	c #557B3D",
"i 	c #577A3E",
"j 	c #58803F",
"k 	c #608643",
"l 	c #699049",
"m 	c #5F8744",
"n 	c #5A813F",
"o 	c #648B46",
"p 	c #668B47",
"q 	c #688E47",
"r 	c #658A46",
"s 	c #5E8541",
"t 	c #557B3E",
"u 	c #4E743B",
"v 	c #476D36",
"w 	c #5E8441",
"x 	c #5A7F3F",
"y 	c #658B47",
"z 	c #5D8341",
"A 	c #5C8140",
"B 	c #638845",
"C 	c #6A914A",
"D 	c #6F934B",
"E 	c #73934A",
"F 	c #698C48",
"G 	c #5D8342",
"H 	c #658B46",
"I 	c #698F48",
"J 	c #608743",
"K 	c #72954B",
"L 	c #6C9049",
"M 	c #4F743B",
"N 	c #5D8240",
"O 	c #547A3D",
"P 	c #52773E",
"Q 	c #577E3F",
"R 	c #51763C",
"S 	c #5A7E3F",
"T 	c #658A47",
"U 	c #608845",
"V 	c #6A9048",
"W 	c #6B9149",
"X 	c #5E8542",
"Y 	c #638B45",
"Z 	c #628743",
"` 	c #608644",
" .	c #6A9049",
"..	c #658B45",
"+.	c #648945",
"@.	c #668C47",
"#.	c #618743",
"$.	c #5C8441",
"%.	c #6C9249",
"&.	c #678E47",
"*.	c #4C713A",
"=.	c #598040",
"-.	c #638946",
";.	c #658A45",
">.	c #608846",
",.	c #628A45",
"'.	c #557C3E",
").	c #5D8442",
"!.	c #567A3D",
"~.	c #52733A",
"{.	c #597D3F",
"].	c #5B813F",
"^.	c #5F8443",
"/.	c #567E3E",
"(.	c #4E753C",
"_.	c #587F3F",
":.	c #6B904A",
"<.	c #547B3D",
"[.	c #577D3F",
"}.	c #52753B",
"|.	c #506D37",
"1.	c #5B7F3F",
"2.	c #5E8242",
"3.	c #648A46",
"4.	c #618843",
"5.	c #446A35",
"6.	c #4D7238",
"7.	c #53783C",
"8.	c #5B7E3F",
"9.	c #5D8343",
"0.	c #446332",
"a.	c #4E6936",
"b.	c #5F8542",
"c.	c #587E3E",
"d.	c #4D7439",
"e.	c #4D7339",
"f.	c #5D8340",
"g.	c #446935",
"h.	c #5E8543",
"i.	c #547A3E",
"j.	c #5B803F",
"k.	c #5C7F40",
"l.	c #6A9149",
"m.	c #51783D",
"n.	c #587F40",
"o.	c #4F763C",
"p.	c #4D743B",
"q.	c #587C3E",
"r.	c #5A7C3E",
"s.	c #6B8F48",
"t.	c #668845",
"u.	c #688D48",
"v.	c #567C3F",
"w.	c #587D40",
"x.	c #436935",
"y.	c #628845",
"z.	c #5B7F41",
"A.	c #5E8643",
"B.	c #70944A",
"C.	c #70934A",
"D.	c #6D914A",
"E.	c #597F3F",
"F.	c #567D3F",
"G.	c #5A8142",
"H.	c #638A45",
"I.	c #9C5369",
"J.	c #6A904A",
"K.	c #5F8644",
"L.	c #628945",
"M.	c #678E48",
"N.	c #698D48",
"O.	c #537A3D",
"P.	c #436836",
"Q.	c #658C47",
"R.	c #6B924B",
"S.	c #688C48",
"T.	c #5A803F",
"U.	c #668A47",
"V.	c #E07993",
"W.	c #534721",
"X.	c #598240",
"Y.	c #5A8240",
"Z.	c #486F37",
"`.	c #608843",
" +	c #587E40",
".+	c #567E3F",
"++	c #53793C",
"@+	c #567D3E",
"#+	c #557D3E",
"$+	c #577B3E",
"%+	c #618844",
"&+	c #FFA3B0",
"*+	c #FECBD0",
"=+	c #FFD600",
"-+	c #557C3F",
";+	c #577B3D",
">+	c #4F6D36",
",+	c #4F783D",
"'+	c #5B8141",
")+	c #53793E",
"!+	c #476C37",
"~+	c #5F8543",
"{+	c #678C47",
"]+	c #577D3D",
"^+	c #5E8341",
"/+	c #5F8643",
"(+	c #5E8642",
"_+	c #688E48",
":+	c #608744",
"<+	c #FFFC00",
"[+	c #E3B700",
"}+	c #C79D00",
"|+	c #5E8443",
"1+	c #53793D",
"2+	c #436734",
"3+	c #59793D",
"4+	c #58783D",
"5+	c #51733A",
"6+	c #52763C",
"7+	c #597E3F",
"8+	c #466835",
"9+	c #456634",
"0+	c #4B6E37",
"a+	c #4A7037",
"b+	c #4D733B",
"c+	c #668E48",
"d+	c #638944",
"e+	c #587D3F",
"f+	c #FF2627",
"g+	c #C70000",
"h+	c #588040",
"i+	c #5B8242",
"j+	c #547A3F",
"k+	c #537A3E",
"l+	c #4B7137",
"m+	c #5D8242",
"n+	c #6C9149",
"o+	c #4B7239",
"p+	c #5B7E3E",
"q+	c #658946",
"r+	c #547C3D",
"s+	c #658D46",
"t+	c #5F8442",
"u+	c #59803F",
"v+	c #608542",
"w+	c #598140",
"x+	c #598141",
"y+	c #678C46",
"z+	c #6F954B",
"A+	c #638745",
"B+	c #698F49",
"C+	c #4F753B",
"D+	c #4F733A",
"E+	c #53743B",
"F+	c #648946",
"G+	c #54773C",
"H+	c #456935",
"I+	c #55723A",
"J+	c #4A6434",
"K+	c #699048",
"L+	c #71924A",
"M+	c #5F8743",
"N+	c #51773C",
"O+	c #658945",
"P+	c #426232",
"Q+	c #4D723B",
"R+	c #50793D",
"S+	c #4B713A",
"T+	c #628744",
"U+	c #618945",
"V+	c #4A7039",
"W+	c #557A3D",
"X+	c #53773D",
"Y+	c #577E3E",
"Z+	c #567D3D",
"`+	c #608242",
" @	c #6E934A",
".@	c #678D48",
"+@	c #6A9148",
"@@	c #5E8342",
"#@	c #4C7139",
"$@	c #4F763B",
"%@	c #52783B",
"&@	c #6D934B",
"*@	c #71944B",
"=@	c #6D9049",
"-@	c #70974C",
";@	c #51713A",
">@	c #4B6835",
",@	c #6F964B",
"'@	c #70964B",
")@	c #698E49",
"!@	c #628843",
"~@	c #698E48",
"{@	c #608844",
"]@	c #648A44",
"^@	c #4B6D37",
"/@	c #4E6F38",
"(@	c #5F8441",
"_@	c #597D3E",
":@	c #4D6E37",
"<@	c #567A3E",
"[@	c #5A7F40",
"}@	c #4F6F38",
"|@	c #FFE1AF",
"1@	c #EEBE93",
"2@	c #56753B",
"3@	c #436A35",
"4@	c #466834",
"5@	c #527239",
"6@	c #54743C",
"7@	c #50733B",
"8@	c #55743B",
"9@	c #56793C",
"0@	c #618543",
"a@	c #5A2853",
"b@	c #4F6F37",
"c@	c #446834",
"d@	c #4D713A",
"e@	c #688B46",
"f@	c #628541",
"g@	c #52783C",
"h@	c #638B44",
"i@	c #5B8040",
"j@	c #5E7F3F",
"k@	c #5C8342",
"l@	c #638844",
"m@	c #9D704C",
"n@	c #CECECE",
"o@	c #181626",
"p@	c #CCD0CE",
"q@	c #5A7E41",
"r@	c #749A4E",
"s@	c #50783C",
"t@	c #71954C",
"u@	c #648B47",
"v@	c #72974B",
"w@	c #638A44",
"x@	c #5B8240",
"y@	c #658C46",
"z@	c #597F41",
"A@	c #F4F4F4",
"B@	c #828189",
"C@	c #D7906E",
"D@	c #5C8340",
"E@	c #52773C",
"F@	c #5D8241",
"G@	c #577C3E",
"H@	c #4C713B",
"I@	c #9F17AD",
"J@	c #5B7D3F",
"K@	c #54733B",
"L@	c #55783D",
"M@	c #5B8341",
"N@	c #668D47",
"O@	c #466836",
"P@	c #5F5F5F",
"Q@	c #A0A0A0",
"R@	c #C2C2C2",
"S@	c #E8E8E8",
"T@	c #1D796D",
"U@	c #15454A",
"V@	c #2EB545",
"W@	c #3DFD67",
"X@	c #2BB68E",
"Y@	c #6DFFA3",
"Z@	c #2F2F2F",
"`@	c #132529",
" #	c #506B35",
".#	c #557D3D",
"+#	c #5D8041",
"@#	c #5D8140",
"##	c #53783D",
"$#	c #557A3C",
"%#	c #52773D",
"&#	c #567C3D",
"*#	c #52793B",
"=#	c #547D3E",
"-#	c #577F3F",
";#	c #6A8F4A",
">#	c #6F944A",
",#	c #55733B",
"'#	c #648944",
")#	c #5C8442",
"!#	c #678E49",
"~#	c #6A8F49",
"{#	c #648B45",
"]#	c #5A8041",
"^#	c #638B47",
"/#	c #688D47",
"(#	c #4C743A",
"_#	c #5D7E40",
":#	c #54743B",
"<#	c #608543",
"[#	c #5B8241",
"}#	c #466A36",
"|#	c #587F3E",
"  . + @ # $ % & * = - ; > , . ' ) ! ~ { ] ^ / (   . + @ # $ % & * = - ; > , . ' ) ! ~ { ] ^ / - ",
"_ : < [ . ( } | 1 2 3 ] 4 5 6 + 7 ^ 8 9 & 0 _ a ( b < [ . ( } | 1 2 3 ] 4 5 6 + 7 ^ 8 9 & 0 _ c ",
"d e ; f g h i j k l m n o _ p q ) ' r s t u 3 3 v e ; f g h i j k l m n o _ p q ) ' r s t u 3 w ",
"x y z A ] B C D E F G H C I J K L M N ^ O P Q R S T z A ] B C D E F G H C I J K L M N ^ O P Q R ",
"U V W X Y H Z ` r  .o ..+.@.#.$.%.&.*.=.g -.;.& >.V W X Y H Z ` r  .o ..+.@.#.$.%.&.*.=.g -.;.z ",
"^ ,.O '.).!.~.{.].].` #.^.G h /.( + [ (._.;.#.( @ 1 O '.).!.~.{.].].` #.^.G h /.( + [ (._.;.#.- ",
":.<.[.#.}.|.1.2.3.( 4.Q 5.6.7.8.9.0.a.8 b.c.d.w C <.[.#.}.|.1.2.3.( 4.Q 5.6.7.8.9.0.a.8 b.c.e.f.",
"{.g.h.i.j.k.l.m.M n.w o.p.q.r.) s.t.o  .u.J v.-.w.x.h.i.j.k.l.m.M n.w o.p.q.r.) s.t.o  .u.J '.y.",
"z.A.h.^ B.C.D.I & E.' F.G.H.I.I.I.I.J.K..   I.I.I.I.I.^ B.C.D.I & E.' F.G.H.L.J ^.I J.K..   M.z ",
"N.O.P.Q.( < R.@ 3.S.T.y.U.I.V.V.V.V.I.I.I.I.V.V.V.V.V.I.I.I.R.W.3.S.T.y.U.p X.j Y.^ ] Z.^.y.`.@ ",
"+. +e .+++@+#+k _.$+%+& I.V.&+&+&+&+V.I.&+*+&+&+&+&+&+*+W.V.W.=+W.$+%+& -+v.;+>+$+g ,+'+)+!+~+{+",
"]+@+^+/+r {+(+- p _+:+I.V.*+&+&+&+*+&+I.*+&+&+&+&+&+&+W.<+W.=+[+}+W.:+|+1+2+3+4+5+6+7+* 8+9+0+k ",
"a+b+ .T +.c+~+:+d+, e+I.&+&+*+*+*+&+V.I.*+&+&+&+&+&+W.<+f+[+[+g+}+W.e+h+i+j+k+l+m+n+O o+p+q+u.r+",
"s+J. .t+e+_ ~+u+v+w+x+I.&+&+&+*+&+V.I.&+*+*+&+&+&+&+=+[+[+&+&+&+&+V.I.).y+z+@ A+ .B+@ 9 @.W @ r ",
"x t G C+Y.D+E+F+G+H+m+I.&+&+&+&+&+I.&+&+&+*+*+*+*+*+*+*+&+&+&+&+&+&+I.I+J+q+K+L+L y.M+T.C+N+i.^ ",
"~ O+3.) E._ P+Q+$.].$+I.&+&+&+&+&+I.&+&+&+&+&+&+&+&+&+&+&+&+&+&+V.&+V.I.t+R+S+m @.T+U+N.H @+V+v.",
"W+X+#.Y+Z+L.`+t. @{+I.V.&+&+&+&+V.I.&+&+&+&+&+V.&+&+V.&+&+V.&+&+V.&+V.I..@G.+@H @@o ,.#@$@~+m.1 ",
"%@_ /+ .. H &@*@=@m I.V.&+&+&+&+I.&+&+&+V.&+V.&+&+&+V.&+&+V.&+&+V.V.V.I.:+-@H ;@>@[ /+. ,@'@'.i.",
")@ @K+!@~@c L.u+ +H.I.V.&+&+&+V.I.&+&+V.V.V.V.&+&+V.V.V.V.V.V.V.V.V.I.:+{@]@^@/@(@_@:@@ {+m.O.=.",
"T d+.@. k Q G+<@[@}@I.V.V.&+&+V.I.&+V.V.W.W.V.&+V.|@|@|@|@|@1@1@W.I.2@g 3@| ;+G+4@5@6@@@C+7@8@T ",
"+ ^.B ^ v.m.# 9@0@L.I.V.V.&+V.V.I.&+V.W.|@1@V.V.|@a@a@a@a@|@|@1@W.L.b@c@v.  q d@e@D.7+$+| f@f.u+",
"g@)@h@= i@j@7 k@l@w+I.V.V.&+V.V.I.V.V.W.|@m@V.|@a@a@n@o@p@|@|@1@W.w+$@q@r@0 s@t@^ u@v@^+~+_+B+w@",
"B+_ x@@+9 y@+.~@z@. I.V.V.V.V.V.I.V.V.W.1@m@V.|@|@a@A@o@B@|@|@C@W.. 8 . J '.. u@D@y.y@` @.;.u.T+",
"]@. E@(+G.F@[.G@S+H@I.V.V.V.V.I.I.V.V.V.W.C@V.|@|@|@|@I@I@|@1@m@W.H@J@K@L@0@Q M@N@|+O@C+$.#.Y+' ",
"  . + @ # $ % & * = - I.V.V.V.I.I.I.V.V.I.C@C@1@|@|@|@|@|@1@C@W.* = - ; > , . ' ) ! ~ { ] ^ / - ",
"_ : < [ . ( } | 1 2 3 I.V.V.I.+ I.V.I.I.m@m@C@C@1@1@1@C@C@m@W.| 1 2 3 ] 4 5 6 + 7 ^ 8 9 & 0 _ c ",
"d e ; f g h i j k l m I.V.I.p q I.V.P@P@Q@Q@W.W.W.W.W.W.W.W.i j k l m n o _ p q ) ' r s t u 3 w ",
"x y z A ] B C D E F G I.V.I.J K L P@R@S@S@T@T@U@V@W@|@|@1@W.C D E F G H C I J K L M N ^ O P Q R ",
"U V W X Y H Z ` r  .o ..I.@.#.$.P@Q@S@R@T@X@S@R@Q@W@Y@Y@W@V@Z@` r  .o ..+.@.#.$.%.&.*.=.g -.;.z ",
"^ ,.O '.).!.~.{.].].` #.^.G h /.P@Q@R@S@S@S@X@U@X@X@X@X@T@U@Z@{.].].` #.^.G h /.( + [ (._.;.#.- ",
":.<.[.#.}.|.1.2.3.( 4.Q 5.6.7.`@U@R@S@W@T@X@`@T@T@T@U@U@U@`@1.2.3.( 4.Q 5.6.7.8.9.0.a.8 b.c.e.f.",
"{.g.h.i.j.k.l.m.M n.w o.p.q.r.`@X@S@|@|@V@W.V@W@W@Y@Y@W@T@U@l.m.M n.w o.p.q.r.) s.t.o  .u.J '.y.",
"z.A.h.^ B.C.D.I & E.' F.G.H.L.`@X@S@|@|@C@W.U@U@U@W@V@T@W@V@Z@I & E.' F.G.H.L.J ^.I J.K..   M.z ",
"N.O.P.Q.( < R.@ 3.S.T.y.U.p `@`@T@R@C@C@W.U@T@T@T@X@X@T@R@Q@Q@P@3.S.T.y.U.p X.j Y.^ ] Z.^.y.`.@ ",
"+. +e .+++@+#+k _.$+%+P@P@`@`@U@T@R@W.W.U@T@T@X@X@X@X@X@S@S@R@Q@P@$+%+& -+v.;+>+$+g ,+'+)+!+~+{+",
"]+@+^+/+r {+(+- p _+P@Q@`@U@U@T@X@S@R@P@U@U@T@X@X@X@X@X@R@R@R@Q@Q@P@:+|+1+2+3+4+5+6+7+* 8+9+0+k ",
"a+b+ .T +.c+~+:+d+, e+P@Q@P@T@X@X@S@S@P@U@U@T@T@X@X@X@S@S@S@S@R@Q@P@e+h+i+j+k+l+m+n+O o+p+q+u.r+",
"s+J. .t+e+_ ~+u+v+w+x+).P@Q@R@S@S@R@P@U@U@U@U@T@T@X@X@S@S@S@R@Q@P@w+x+).y+z+@ A+ .B+@ 9 @.W @ r ",
"x t G C+Y.D+E+F+G+H+m+I+J+q+K+L+L y.M+T.C+N+# @ E.# k@C+Y.D+E+F+G+H+m+I+J+q+K+L+L y.M+T.C+N+i.^ ",
"~ O+3.) E._ P+Q+$.].$+ #t+R+S+m @.T+U+N.H @+5 [..#+.3.) E._ P+Q+$.].$+ #t+R+S+m @.T+U+N.H @+V+v.",
"W+X+#.Y+Z+L.`+t. @{++#@#.@G.+@H @@o ,.#@$@~+##y $#%#J Y+Z+L.`+t. @{++#@#.@G.+@H @@o ,.#@$@~+m.1 ",
"%@_ /+ .. H &@*@=@m #.&#:+-@H ;@>@[ /+. ,@'@'.i.*#& /+ .. H &@*@=@m #.&#:+-@H ;@>@[ /+. ,@'@'.i.",
")@ @K+!@~@c L.u+ +H.=#:+{@]@^@/@(@_@:@@ {+m.1+-#;#>#K+!@~@c L.u+ +H.=#:+{@]@^@/@(@_@:@@ {+m.O.=.",
"T d+.@. k Q G+<@[@}@2@g 3@| ;+G+4@5@6@@@C+7@,#F+p '#.@. k Q G+<@[@}@2@g 3@| ;+G+4@5@6@@@C+7@8@T ",
"+ ^.B ^ v.m.# 9@0@L.b@c@v.  q d@e@D.7+$+| f@f.u+[.^.B ^ v.m.# 9@0@L.b@c@v.  q d@e@D.7+$+| f@f.u+",
"g@)@h@= i@j@7 )#d+w+$@q@r@0 s@t@^ u@v@^+~+_+B+H.g@!#h@= i@j@7 )#d+w+$@q@r@0 s@t@^ u@v@^+~+_+B+w@",
"~#_ x@@+{#N@q+I ]#. 8 . :+'.. ^#D@y.y@` {+;./#T+J.0 x@@+{#N@q+I ]#. 8 . :+'.. ^#D@y.y@` {+;.u.l@",
"^ J E@M+i+X < < (#p._#:#L@<#[.[#N@|+}#/ X Z |#_.;.. E@M+i+X < < (#p._#:#L@<#[.[#N@|+}#/ X T+E.- "};
