/* XPM */
static char * player_04_xpm[] = {
"48 48 373 2",
"  	c #668B46",
". 	c #618744",
"+ 	c #577D3E",
"@ 	c #638945",
"# 	c #557A3E",
"$ 	c #628944",
"% 	c #658C48",
"& 	c #5C8341",
"* 	c #4C7339",
"= 	c #567B3E",
"- 	c #5A8040",
"; 	c #608443",
"> 	c #5D8040",
", 	c #668B48",
"' 	c #587E3F",
") 	c #5B8140",
"! 	c #486D36",
"~ 	c #577E3D",
"{ 	c #608544",
"] 	c #5D8441",
"^ 	c #628844",
"/ 	c #50763B",
"( 	c #5A8140",
"_ 	c #5C8241",
": 	c #4F743A",
"< 	c #597F40",
"[ 	c #55793E",
"} 	c #4E7039",
"| 	c #4E723A",
"1 	c #638A46",
"2 	c #628644",
"3 	c #5E8442",
"4 	c #51783C",
"5 	c #4B7139",
"6 	c #4A7139",
"7 	c #5B8041",
"8 	c #618644",
"9 	c #648A45",
"0 	c #5C8242",
"a 	c #6C924A",
"b 	c #4E743A",
"c 	c #6B9049",
"d 	c #486E37",
"e 	c #50753B",
"f 	c #56793E",
"g 	c #567C3E",
"h 	c #557B3D",
"i 	c #577A3E",
"j 	c #58803F",
"k 	c #608643",
"l 	c #699049",
"m 	c #5F8744",
"n 	c #5A813F",
"o 	c #648B46",
"p 	c #668B47",
"q 	c #688E47",
"r 	c #658A46",
"s 	c #5E8541",
"t 	c #557B3E",
"u 	c #4E743B",
"v 	c #476D36",
"w 	c #5E8441",
"x 	c #5A7F3F",
"y 	c #658B47",
"z 	c #5D8341",
"A 	c #5C8140",
"B 	c #638845",
"C 	c #6A914A",
"D 	c #6F934B",
"E 	c #73934A",
"F 	c #698C48",
"G 	c #5D8342",
"H 	c #658B46",
"I 	c #698F48",
"J 	c #608743",
"K 	c #72954B",
"L 	c #6C9049",
"M 	c #4F743B",
"N 	c #5D8240",
"O 	c #547A3D",
"P 	c #52773E",
"Q 	c #577E3F",
"R 	c #51763C",
"S 	c #5A7E3F",
"T 	c #658A47",
"U 	c #608845",
"V 	c #6A9048",
"W 	c #6B9149",
"X 	c #5E8542",
"Y 	c #638B45",
"Z 	c #628743",
"` 	c #608644",
" .	c #6A9049",
"..	c #658B45",
"+.	c #648945",
"@.	c #668C47",
"#.	c #618743",
"$.	c #5C8441",
"%.	c #6C9249",
"&.	c #678E47",
"*.	c #4C713A",
"=.	c #598040",
"-.	c #638946",
";.	c #658A45",
">.	c #608846",
",.	c #628A45",
"'.	c #557C3E",
").	c #5D8442",
"!.	c #567A3D",
"~.	c #52733A",
"{.	c #597D3F",
"].	c #5B813F",
"^.	c #5F8443",
"/.	c #567E3E",
"(.	c #4E753C",
"_.	c #587F3F",
":.	c #6B904A",
"<.	c #547B3D",
"[.	c #577D3F",
"}.	c #52753B",
"|.	c #506D37",
"1.	c #5B7F3F",
"2.	c #5E8242",
"3.	c #648A46",
"4.	c #618843",
"5.	c #446A35",
"6.	c #4D7238",
"7.	c #53783C",
"8.	c #5B7E3F",
"9.	c #5D8343",
"0.	c #446332",
"a.	c #4E6936",
"b.	c #5F8542",
"c.	c #587E3E",
"d.	c #4D7439",
"e.	c #4D7339",
"f.	c #5D8340",
"g.	c #446935",
"h.	c #5E8543",
"i.	c #547A3E",
"j.	c #5B803F",
"k.	c #5C7F40",
"l.	c #6A9149",
"m.	c #51783D",
"n.	c #587F40",
"o.	c #4F763C",
"p.	c #4D743B",
"q.	c #587C3E",
"r.	c #5A7C3E",
"s.	c #6B8F48",
"t.	c #668845",
"u.	c #688D48",
"v.	c #567C3F",
"w.	c #587D40",
"x.	c #436935",
"y.	c #628845",
"z.	c #5B7F41",
"A.	c #5E8643",
"B.	c #70944A",
"C.	c #70934A",
"D.	c #6D914A",
"E.	c #597F3F",
"F.	c #567D3F",
"G.	c #5A8142",
"H.	c #638A45",
"I.	c #628945",
"J.	c #6A904A",
"K.	c #5F8644",
"L.	c #678E48",
"M.	c #5F8543",
"N.	c #5A7F40",
"O.	c #698D48",
"P.	c #537A3D",
"Q.	c #436836",
"R.	c #658C47",
"S.	c #6B924B",
"T.	c #688C48",
"U.	c #5A803F",
"V.	c #668A47",
"W.	c #9C5369",
"X.	c #486F37",
"Y.	c #598240",
"Z.	c #5A8240",
"`.	c #608843",
" +	c #587E40",
".+	c #567E3F",
"++	c #53793C",
"@+	c #567D3E",
"#+	c #557D3E",
"$+	c #577B3E",
"%+	c #618844",
"&+	c #557C3F",
"*+	c #E07993",
"=+	c #4F783D",
"-+	c #577B3D",
";+	c #4F6D36",
">+	c #5B8141",
",+	c #53793E",
"'+	c #476C37",
")+	c #678C47",
"!+	c #577D3D",
"~+	c #5E8341",
"{+	c #5F8643",
"]+	c #5E8642",
"^+	c #688E48",
"/+	c #608744",
"(+	c #5E8443",
"_+	c #FFA3B0",
":+	c #FECBD0",
"<+	c #436734",
"[+	c #59793D",
"}+	c #58783D",
"|+	c #51733A",
"1+	c #52763C",
"2+	c #597E3F",
"3+	c #466835",
"4+	c #456634",
"5+	c #4B6E37",
"6+	c #4A7037",
"7+	c #4D733B",
"8+	c #668E48",
"9+	c #638944",
"0+	c #587D3F",
"a+	c #588040",
"b+	c #547A3F",
"c+	c #537A3E",
"d+	c #4B7137",
"e+	c #5D8242",
"f+	c #6C9149",
"g+	c #4B7239",
"h+	c #5B7E3E",
"i+	c #658946",
"j+	c #547C3D",
"k+	c #658D46",
"l+	c #5F8442",
"m+	c #59803F",
"n+	c #608542",
"o+	c #598140",
"p+	c #598141",
"q+	c #638745",
"r+	c #698F49",
"s+	c #4F753B",
"t+	c #4F733A",
"u+	c #53743B",
"v+	c #648946",
"w+	c #54773C",
"x+	c #456935",
"y+	c #699048",
"z+	c #71924A",
"A+	c #5F8743",
"B+	c #51773C",
"C+	c #658945",
"D+	c #426232",
"E+	c #4D723B",
"F+	c #4B713A",
"G+	c #628744",
"H+	c #618945",
"I+	c #4A7039",
"J+	c #557A3D",
"K+	c #53773D",
"L+	c #577E3E",
"M+	c #567D3D",
"N+	c #608242",
"O+	c #6E934A",
"P+	c #5D8041",
"Q+	c #6A9148",
"R+	c #5E8342",
"S+	c #4C7139",
"T+	c #4F763B",
"U+	c #52783B",
"V+	c #6D934B",
"W+	c #71944B",
"X+	c #6D9049",
"Y+	c #51713A",
"Z+	c #4B6835",
"`+	c #6F964B",
" @	c #70964B",
".@	c #698E49",
"+@	c #628843",
"@@	c #698E48",
"#@	c #648A44",
"$@	c #4B6D37",
"%@	c #4E6F38",
"&@	c #5F8441",
"*@	c #597D3E",
"=@	c #4D6E37",
"-@	c #678D48",
";@	c #567A3E",
">@	c #4F6F38",
",@	c #466834",
"'@	c #527239",
")@	c #54743C",
"!@	c #50733B",
"~@	c #55743B",
"{@	c #56793C",
"]@	c #618543",
"^@	c #4D713A",
"/@	c #688B46",
"(@	c #628541",
"_@	c #52783C",
":@	c #638B44",
"<@	c #5B8040",
"[@	c #5E7F3F",
"}@	c #5C8342",
"|@	c #638844",
"1@	c #50783C",
"2@	c #71954C",
"3@	c #648B47",
"4@	c #72974B",
"5@	c #638A44",
"6@	c #5B8240",
"7@	c #658C46",
"8@	c #597F41",
"9@	c #5C8340",
"0@	c #52773C",
"a@	c #5D8241",
"b@	c #577C3E",
"c@	c #4C713B",
"d@	c #55783D",
"e@	c #5B8341",
"f@	c #668D47",
"g@	c #466836",
"h@	c #FFFFFF",
"i@	c #132529",
"j@	c #A0A0A0",
"k@	c #15454A",
"l@	c #1D796D",
"m@	c #C2C2C2",
"n@	c #2BB68E",
"o@	c #E8E8E8",
"p@	c #5F5F5F",
"q@	c #6F954B",
"r@	c #55723A",
"s@	c #4A6434",
"t@	c #506B35",
"u@	c #50793D",
"v@	c #557D3D",
"w@	c #5D8140",
"x@	c #53783D",
"y@	c #557A3C",
"z@	c #52773D",
"A@	c #567C3D",
"B@	c #70974C",
"C@	c #52793B",
"D@	c #547D3E",
"E@	c #608844",
"F@	c #53793D",
"G@	c #577F3F",
"H@	c #6A8F4A",
"I@	c #6F944A",
"J@	c #56753B",
"K@	c #436A35",
"L@	c #55733B",
"M@	c #648944",
"N@	c #4F6F37",
"O@	c #446834",
"P@	c #5C8442",
"Q@	c #5A7E41",
"R@	c #749A4E",
"S@	c #678E49",
"T@	c #6A8F49",
"U@	c #648B45",
"V@	c #5A8041",
"W@	c #638B47",
"X@	c #688D47",
"Y@	c #5B8242",
"Z@	c #4C743A",
"`@	c #5D7E40",
" #	c #54743B",
".#	c #608543",
"+#	c #5B8241",
"@#	c #466A36",
"##	c #587F3E",
"  . + @ # $ % & * = - ; > , . ' ) ! ~ { ] ^ / (   . + @ # $ % & * = - ; > , . ' ) ! ~ { ] ^ / - ",
"_ : < [ . ( } | 1 2 3 ] 4 5 6 + 7 ^ 8 9 & 0 _ a ( b < [ . ( } | 1 2 3 ] 4 5 6 + 7 ^ 8 9 & 0 _ c ",
"d e ; f g h i j k l m n o _ p q ) ' r s t u 3 3 v e ; f g h i j k l m n o _ p q ) ' r s t u 3 w ",
"x y z A ] B C D E F G H C I J K L M N ^ O P Q R S T z A ] B C D E F G H C I J K L M N ^ O P Q R ",
"U V W X Y H Z ` r  .o ..+.@.#.$.%.&.*.=.g -.;.& >.V W X Y H Z ` r  .o ..+.@.#.$.%.&.*.=.g -.;.z ",
"^ ,.O '.).!.~.{.].].` #.^.G h /.( + [ (._.;.#.( @ 1 O '.).!.~.{.].].` #.^.G h /.( + [ (._.;.#.- ",
":.<.[.#.}.|.1.2.3.( 4.Q 5.6.7.8.9.0.a.8 b.c.d.w C <.[.#.}.|.1.2.3.( 4.Q 5.6.7.8.9.0.a.8 b.c.e.f.",
"{.g.h.i.j.k.l.m.M n.w o.p.q.r.) s.t.o  .u.J v.-.w.x.h.i.j.k.l.m.M n.w o.p.q.r.) s.t.o  .u.J '.y.",
"z.A.h.^ B.C.D.I & E.' F.G.H.I.J ^.I J.K..   L.M.N.h.h.^ B.C.D.I & E.' F.G.H.I.J ^.I J.K..   L.z ",
"O.P.Q.R.( < S.@ 3.T.U.y.V.p W.W.W.^ ] X.^.y.W.W.W.W.W.R.( < S.@ W.W.W.y.V.p Y.j Z.^ ] X.^.y.`.@ ",
"+. +e .+++@+#+k _.$+%+& &+W.*+*+*+W.=+W.W.W.*+*+*+*+*+W.W.W.#+W.*+*+*+W.&+v.-+;+$+g =+>+,+'+M.)+",
"!+@+~+{+r )+]+- p ^+/+(+W.*+_+_+_+*+W.*+_+:+_+_+_+_+_+:+_+*+W.*+_+_+_+*+W.<+[+}+|+1+2+* 3+4+5+k ",
"6+7+ .T +.8+M./+9+, 0+a+W.:+_+_+:+*+W._+:+_+_+_+_+_+_+_+:+_+W.*+:+_+_+:+W.b+c+d+e+f+O g+h+i+u.j+",
"k+J. .l+0+_ M.m+n+o+p+W.*+_+:+:+_+*+W.:+:+_+_+_+_+_+_+_+:+:+W.*+_+:+:+_+*+W.@ q+ .r+@ 9 @.W @ r ",
"x t G s+Z.t+u+v+w+x+e+W._+_+:+_+*+W._+:+:+:+_+_+_+_+_+:+:+:+_+W._+_+:+_+_+W.y+z+L y.A+U.s+B+i.^ ",
"~ C+3.) E._ D+E+$.].$+W._+_+_+_+W.*+_+_+:+:+:+:+:+:+:+:+:+_+_+W._+_+_+_+_+W.F+m @.G+H+O.H @+I+v.",
"J+K+#.L+M+I.N+t.O+)+P+W._+_+_+_+W._+_+_+_+:+:+:+:+:+:+:+_+_+_+W._+_+_+_+_+W.Q+H R+o ,.S+T+M.m.1 ",
"U+_ {+ .. H V+W+X+m #.W._+_+_+_+W._+_+_+_+_+_+_+_+_+_+_+_+_+_+W._+_+_+_+_+W.H Y+Z+[ {+. `+ @'.i.",
".@O+y++@@@c I.m+ +H.W.*+_+_+_+W.*+_+_+_+_+_+_+_+_+_+_+_+_+_+_+W._+_+_+_+W.#@$@%@&@*@=@@ )+m.P.=.",
"T 9+-@. k Q w+;@N.>@W.*+_+_+_+W.*+_+*+_+_+_+_+_+_+_+_+_+_+_+*+W._+_+_+_+W.| -+w+,@'@)@R+s+!@~@T ",
"+ ^.B ^ v.m.# {@]@I.W.*+_+_+*+W.*+*+*+_+_+_+_+_+_+_+_+_+_+_+*+W._+_+_+*+W.  q ^@/@D.2+$+| (@f.m+",
"_@.@:@= <@[@7 }@|@o+W.*+_+_+*+W.*+*+*+*+_+_+_+_+*+_+_+_+_+*+*+W._+_+_+*+W.0 1@2@^ 3@4@~+M.^+r+5@",
"r+_ 6@@+9 7@+.@@8@. W.*+_+*+*+W.W.*+*+*+*+_+_+*+*+*+_+_+*+*+*+W._+_+*+*+W.'.. 3@9@y.7@` @.;.u.G+",
"#@. 0@]+G.a@[.b@F+c@W.*+_+*+*+W.W.*+*+*+*+*+*+*+*+*+*+*+*+*+*+W.*+_+*+W.d@]@Q e@f@(+g@s+$.#.L+' ",
"  . + @ # $ % & * = W.*+*+*+W.h@h@W.W.*+*+*+*+*+*+*+*+*+*+*+W.W.*+_+*+W.> , . ' ) ! ~ { ] ^ / - ",
"_ : < [ . ( } | 1 2 W.*+*+*+W.i@i@j@j@W.W.*+*+*+*+*+*+*+W.W.j@W.*+*+*+W.4 5 6 + 7 ^ 8 9 & 0 _ c ",
"d e ; f g h i j k l W.*+*+*+W.k@l@j@m@j@j@W.W.W.W.W.W.W.j@j@m@j@W.*+*+W.o _ p q ) ' r s t u 3 w ",
"x y z A ] B C D E F W.*+*+W.i@l@n@j@m@o@m@m@j@j@j@j@j@m@m@o@m@j@W.*+*+*+W.I J K L M N ^ O P Q R ",
"U V W X Y H Z ` r  .W.*+W.i@k@l@n@l@j@m@o@o@o@o@o@o@o@o@o@m@j@l@n@W.*+*+W.@.#.$.%.&.*.=.g -.;.z ",
"^ ,.O '.).!.~.{.].].W.*+W.i@k@l@n@l@k@j@m@o@o@o@o@o@o@o@m@j@k@l@n@n@W.*+W.G h /.( + [ (._.;.#.- ",
":.<.[.#.}.|.1.2.3.( W.W.5.i@l@l@l@l@k@k@j@m@m@o@o@o@m@m@j@k@k@l@n@n@n@W.W.6.7.8.9.0.a.8 b.c.e.f.",
"{.g.h.i.j.k.l.m.M n.W.o.p.i@l@l@l@k@l@l@l@l@j@j@j@j@j@l@l@k@l@n@n@n@n@l@W.q.r.) s.t.o  .u.J '.y.",
"z.A.h.^ B.C.D.I & E.' F.i@k@k@l@l@l@l@l@n@n@l@k@k@k@l@n@l@l@l@n@n@n@l@k@k@p@I.J ^.I J.K..   L.z ",
"O.P.Q.R.( < S.@ 3.T.U.p@i@k@l@n@l@l@n@n@n@n@n@n@n@n@n@n@l@l@n@n@n@l@k@k@k@p@Y.j Z.^ ] X.^.y.`.@ ",
"+. +e .+++@+#+k _.$+p@j@k@l@n@n@n@l@n@n@n@n@n@n@n@n@n@n@l@n@n@l@n@k@k@k@k@j@p@;+$+g =+>+,+'+M.)+",
"!+@+~+{+r )+]+- p p@j@o@l@n@n@n@n@n@n@n@n@n@n@n@n@n@n@l@n@n@n@l@l@k@l@k@m@j@p@}+|+1+2+* 3+4+5+k ",
"6+7+ .T +.8+M./+9+p@j@m@o@n@n@n@n@n@l@l@n@n@n@n@n@n@n@n@n@n@l@l@l@l@m@j@j@p@c+d+e+f+O g+h+i+u.j+",
"k+J. .l+0+_ M.m+n+o+p@j@m@o@o@n@n@l@l@l@l@l@n@n@n@n@n@n@l@l@l@l@m@m@j@p@p@q@@ q+ .r+@ 9 @.W @ r ",
"x t G s+Z.t+u+v+w+x+e+p@p@j@j@m@m@m@o@o@o@o@o@o@o@m@m@m@m@m@j@j@j@p@p@r@s@i+y+z+L y.A+U.s+B+i.^ ",
"~ C+3.) E._ D+E+$.].$+t@l+u@F+m @.G+H+O.H @+5 [.v@+.3.) E._ D+E+$.].$+t@l+u@F+m @.G+H+O.H @+I+v.",
"J+K+#.L+M+I.N+t.O+)+P+w@-@G.Q+H R+o ,.S+T+M.x@y y@z@J L+M+I.N+t.O+)+P+w@-@G.Q+H R+o ,.S+T+M.m.1 ",
"U+_ {+ .. H V+W+X+m #.A@/+B@H Y+Z+[ {+. `+ @'.i.C@& {+ .. H V+W+X+m #.A@/+B@H Y+Z+[ {+. `+ @'.i.",
".@O+y++@@@c I.m+ +H.D@/+E@#@$@%@&@*@=@@ )+m.F@G@H@I@y++@@@c I.m+ +H.D@/+E@#@$@%@&@*@=@@ )+m.P.=.",
"T 9+-@. k Q w+;@N.>@J@g K@| -+w+,@'@)@R+s+!@L@v+p M@-@. k Q w+;@N.>@J@g K@| -+w+,@'@)@R+s+!@~@T ",
"+ ^.B ^ v.m.# {@]@I.N@O@v.  q ^@/@D.2+$+| (@f.m+[.^.B ^ v.m.# {@]@I.N@O@v.  q ^@/@D.2+$+| (@f.m+",
"_@.@:@= <@[@7 P@9+o+T+Q@R@0 1@2@^ 3@4@~+M.^+r+H._@S@:@= <@[@7 P@9+o+T+Q@R@0 1@2@^ 3@4@~+M.^+r+5@",
"T@_ 6@@+U@f@i+I V@. 8 . /+'.. W@9@y.7@` )+;.X@G+J.0 6@@+U@f@i+I V@. 8 . /+'.. W@9@y.7@` )+;.u.|@",
"^ J 0@A+Y@X < < Z@p.`@ #d@.#[.+#f@(+@#/ X Z ##_.;.. 0@A+Y@X < < Z@p.`@ #d@.#[.+#f@(+@#/ X G+E.- "};
