/* XPM */
static char * player_01_xpm[] = {
"48 48 396 2",
"  	c #668B46",
". 	c #618744",
"+ 	c #577D3E",
"@ 	c #638945",
"# 	c #557A3E",
"$ 	c #628944",
"% 	c #658C48",
"& 	c #5C8341",
"* 	c #4C7339",
"= 	c #567B3E",
"- 	c #5A8040",
"; 	c #608443",
"> 	c #5D8040",
", 	c #668B48",
"' 	c #587E3F",
") 	c #5B8140",
"! 	c #486D36",
"~ 	c #577E3D",
"{ 	c #608544",
"] 	c #5D8441",
"^ 	c #628844",
"/ 	c #50763B",
"( 	c #5A8140",
"_ 	c #5C8241",
": 	c #4F743A",
"< 	c #597F40",
"[ 	c #55793E",
"} 	c #4E7039",
"| 	c #4E723A",
"1 	c #638A46",
"2 	c #628644",
"3 	c #5E8442",
"4 	c #51783C",
"5 	c #4B7139",
"6 	c #4A7139",
"7 	c #5B8041",
"8 	c #618644",
"9 	c #648A45",
"0 	c #5C8242",
"a 	c #6C924A",
"b 	c #4E743A",
"c 	c #6B9049",
"d 	c #486E37",
"e 	c #50753B",
"f 	c #56793E",
"g 	c #567C3E",
"h 	c #557B3D",
"i 	c #577A3E",
"j 	c #58803F",
"k 	c #608643",
"l 	c #699049",
"m 	c #5F8744",
"n 	c #5A813F",
"o 	c #648B46",
"p 	c #668B47",
"q 	c #688E47",
"r 	c #658A46",
"s 	c #5E8541",
"t 	c #557B3E",
"u 	c #4E743B",
"v 	c #476D36",
"w 	c #5E8441",
"x 	c #5A7F3F",
"y 	c #658B47",
"z 	c #5D8341",
"A 	c #5C8140",
"B 	c #638845",
"C 	c #6A914A",
"D 	c #6F934B",
"E 	c #73934A",
"F 	c #698C48",
"G 	c #5D8342",
"H 	c #658B46",
"I 	c #698F48",
"J 	c #608743",
"K 	c #72954B",
"L 	c #6C9049",
"M 	c #4F743B",
"N 	c #5D8240",
"O 	c #547A3D",
"P 	c #52773E",
"Q 	c #577E3F",
"R 	c #51763C",
"S 	c #5A7E3F",
"T 	c #658A47",
"U 	c #608845",
"V 	c #6A9048",
"W 	c #6B9149",
"X 	c #5E8542",
"Y 	c #638B45",
"Z 	c #628743",
"` 	c #608644",
" .	c #6A9049",
"..	c #658B45",
"+.	c #648945",
"@.	c #668C47",
"#.	c #618743",
"$.	c #5C8441",
"%.	c #6C9249",
"&.	c #678E47",
"*.	c #4C713A",
"=.	c #598040",
"-.	c #638946",
";.	c #658A45",
">.	c #608846",
",.	c #628A45",
"'.	c #557C3E",
").	c #5D8442",
"!.	c #567A3D",
"~.	c #52733A",
"{.	c #597D3F",
"].	c #5B813F",
"^.	c #5F8443",
"/.	c #567E3E",
"(.	c #4E753C",
"_.	c #587F3F",
":.	c #6B904A",
"<.	c #547B3D",
"[.	c #577D3F",
"}.	c #52753B",
"|.	c #506D37",
"1.	c #5B7F3F",
"2.	c #5E8242",
"3.	c #648A46",
"4.	c #618843",
"5.	c #446A35",
"6.	c #4D7238",
"7.	c #53783C",
"8.	c #5B7E3F",
"9.	c #5D8343",
"0.	c #446332",
"a.	c #4E6936",
"b.	c #5F8542",
"c.	c #587E3E",
"d.	c #4D7439",
"e.	c #4D7339",
"f.	c #5D8340",
"g.	c #446935",
"h.	c #5E8543",
"i.	c #547A3E",
"j.	c #5B803F",
"k.	c #5C7F40",
"l.	c #6A9149",
"m.	c #51783D",
"n.	c #587F40",
"o.	c #4F763C",
"p.	c #4D743B",
"q.	c #587C3E",
"r.	c #5A7C3E",
"s.	c #6B8F48",
"t.	c #668845",
"u.	c #688D48",
"v.	c #567C3F",
"w.	c #587D40",
"x.	c #436935",
"y.	c #628845",
"z.	c #5B7F41",
"A.	c #5E8643",
"B.	c #70944A",
"C.	c #70934A",
"D.	c #6D914A",
"E.	c #597F3F",
"F.	c #567D3F",
"G.	c #5A8142",
"H.	c #638A45",
"I.	c #628945",
"J.	c #6A904A",
"K.	c #5F8644",
"L.	c #678E48",
"M.	c #5F8543",
"N.	c #5A7F40",
"O.	c #698D48",
"P.	c #537A3D",
"Q.	c #436836",
"R.	c #658C47",
"S.	c #6B924B",
"T.	c #688C48",
"U.	c #5A803F",
"V.	c #668A47",
"W.	c #9C5369",
"X.	c #486F37",
"Y.	c #534721",
"Z.	c #598240",
"`.	c #5A8240",
" +	c #608843",
".+	c #587E40",
"++	c #567E3F",
"@+	c #53793C",
"#+	c #567D3E",
"$+	c #557D3E",
"%+	c #577B3E",
"&+	c #618844",
"*+	c #557C3F",
"=+	c #E07993",
"-+	c #4F783D",
";+	c #FFFC00",
">+	c #577B3D",
",+	c #4F6D36",
"'+	c #5B8141",
")+	c #53793E",
"!+	c #476C37",
"~+	c #678C47",
"{+	c #577D3D",
"]+	c #5E8341",
"^+	c #5F8643",
"/+	c #5E8642",
"(+	c #688E48",
"_+	c #608744",
":+	c #5E8443",
"<+	c #FFA3B0",
"[+	c #FFD600",
"}+	c #436734",
"|+	c #59793D",
"1+	c #58783D",
"2+	c #51733A",
"3+	c #52763C",
"4+	c #597E3F",
"5+	c #466835",
"6+	c #456634",
"7+	c #4B6E37",
"8+	c #4A7037",
"9+	c #4D733B",
"0+	c #668E48",
"a+	c #638944",
"b+	c #587D3F",
"c+	c #588040",
"d+	c #C70000",
"e+	c #E3B700",
"f+	c #FF2627",
"g+	c #547A3F",
"h+	c #537A3E",
"i+	c #4B7137",
"j+	c #5D8242",
"k+	c #6C9149",
"l+	c #4B7239",
"m+	c #5B7E3E",
"n+	c #658946",
"o+	c #547C3D",
"p+	c #658D46",
"q+	c #5F8442",
"r+	c #59803F",
"s+	c #608542",
"t+	c #598140",
"u+	c #598141",
"v+	c #C79D00",
"w+	c #638745",
"x+	c #698F49",
"y+	c #4F753B",
"z+	c #4F733A",
"A+	c #53743B",
"B+	c #648946",
"C+	c #54773C",
"D+	c #456935",
"E+	c #FECBD0",
"F+	c #699048",
"G+	c #71924A",
"H+	c #5F8743",
"I+	c #51773C",
"J+	c #658945",
"K+	c #426232",
"L+	c #4D723B",
"M+	c #4B713A",
"N+	c #628744",
"O+	c #618945",
"P+	c #4A7039",
"Q+	c #557A3D",
"R+	c #53773D",
"S+	c #577E3E",
"T+	c #567D3D",
"U+	c #608242",
"V+	c #6E934A",
"W+	c #5D8041",
"X+	c #6A9148",
"Y+	c #5E8342",
"Z+	c #4C7139",
"`+	c #4F763B",
" @	c #52783B",
".@	c #6D934B",
"+@	c #71944B",
"@@	c #6D9049",
"#@	c #51713A",
"$@	c #4B6835",
"%@	c #6F964B",
"&@	c #70964B",
"*@	c #698E49",
"=@	c #628843",
"-@	c #698E48",
";@	c #547D3E",
">@	c #4B6D37",
",@	c #4E6F38",
"'@	c #5F8441",
")@	c #597D3E",
"!@	c #4D6E37",
"~@	c #678D48",
"{@	c #567A3E",
"]@	c #4F6F38",
"^@	c #56753B",
"/@	c #466834",
"(@	c #527239",
"_@	c #54743C",
":@	c #50733B",
"<@	c #55743B",
"[@	c #56793C",
"}@	c #618543",
"|@	c #4F6F37",
"1@	c #446834",
"2@	c #D7906E",
"3@	c #EEBE93",
"4@	c #FFE1AF",
"5@	c #4D713A",
"6@	c #688B46",
"7@	c #628541",
"8@	c #52783C",
"9@	c #638B44",
"0@	c #5B8040",
"a@	c #5E7F3F",
"b@	c #5C8342",
"c@	c #638844",
"d@	c #5A7E41",
"e@	c #5A2853",
"f@	c #71954C",
"g@	c #648B47",
"h@	c #72974B",
"i@	c #638A44",
"j@	c #5B8240",
"k@	c #658C46",
"l@	c #597F41",
"m@	c #CECECE",
"n@	c #181626",
"o@	c #CCD0CE",
"p@	c #5C8340",
"q@	c #648A44",
"r@	c #52773C",
"s@	c #5D8241",
"t@	c #577C3E",
"u@	c #4C713B",
"v@	c #5B7D3F",
"w@	c #54733B",
"x@	c #55783D",
"y@	c #9D704C",
"z@	c #F4F4F4",
"A@	c #828189",
"B@	c #5B8341",
"C@	c #668D47",
"D@	c #466836",
"E@	c #132529",
"F@	c #9F17AD",
"G@	c #15454A",
"H@	c #1D796D",
"I@	c #2BB68E",
"J@	c #E8E8E8",
"K@	c #C2C2C2",
"L@	c #A0A0A0",
"M@	c #2EB545",
"N@	c #3DFD67",
"O@	c #6DFFA3",
"P@	c #FFFFFF",
"Q@	c #2F2F2F",
"R@	c #5F5F5F",
"S@	c #55723A",
"T@	c #4A6434",
"U@	c #506B35",
"V@	c #50793D",
"W@	c #557D3D",
"X@	c #5D8140",
"Y@	c #53783D",
"Z@	c #557A3C",
"`@	c #52773D",
" #	c #567C3D",
".#	c #70974C",
"+#	c #52793B",
"@#	c #608844",
"##	c #53793D",
"$#	c #577F3F",
"%#	c #6A8F4A",
"&#	c #6F944A",
"*#	c #436A35",
"=#	c #55733B",
"-#	c #648944",
";#	c #5C8442",
">#	c #749A4E",
",#	c #50783C",
"'#	c #678E49",
")#	c #6A8F49",
"!#	c #648B45",
"~#	c #5A8041",
"{#	c #638B47",
"]#	c #688D47",
"^#	c #5B8242",
"/#	c #4C743A",
"(#	c #5D7E40",
"_#	c #54743B",
":#	c #608543",
"<#	c #5B8241",
"[#	c #466A36",
"}#	c #587F3E",
"  . + @ # $ % & * = - ; > , . ' ) ! ~ { ] ^ / (   . + @ # $ % & * = - ; > , . ' ) ! ~ { ] ^ / - ",
"_ : < [ . ( } | 1 2 3 ] 4 5 6 + 7 ^ 8 9 & 0 _ a ( b < [ . ( } | 1 2 3 ] 4 5 6 + 7 ^ 8 9 & 0 _ c ",
"d e ; f g h i j k l m n o _ p q ) ' r s t u 3 3 v e ; f g h i j k l m n o _ p q ) ' r s t u 3 w ",
"x y z A ] B C D E F G H C I J K L M N ^ O P Q R S T z A ] B C D E F G H C I J K L M N ^ O P Q R ",
"U V W X Y H Z ` r  .o ..+.@.#.$.%.&.*.=.g -.;.& >.V W X Y H Z ` r  .o ..+.@.#.$.%.&.*.=.g -.;.z ",
"^ ,.O '.).!.~.{.].].` #.^.G h /.( + [ (._.;.#.( @ 1 O '.).!.~.{.].].` #.^.G h /.( + [ (._.;.#.- ",
":.<.[.#.}.|.1.2.3.( 4.Q 5.6.7.8.9.0.a.8 b.c.d.w C <.[.#.}.|.1.2.3.( 4.Q 5.6.7.8.9.0.a.8 b.c.e.f.",
"{.g.h.i.j.k.l.m.M n.w o.p.q.r.) s.t.o  .u.J v.-.w.x.h.i.j.k.l.m.M n.w o.p.q.r.) s.t.o  .u.J '.y.",
"z.A.h.^ B.C.D.I & E.' F.G.H.I.J ^.I J.K..   L.M.N.h.h.^ B.C.D.I & E.' F.G.H.I.J ^.I J.K..   L.z ",
"O.P.Q.R.( < S.@ 3.T.U.y.V.p W.W.W.^ ] X.^.y.W.W.Y.W.W.R.( < S.@ W.W.W.y.V.p Z.j `.^ ] X.^.y. +@ ",
"+..+e ++@+#+$+k _.%+&+& *+W.=+=+=+W.-+W.W.Y.=+Y.;+Y.=+Y.W.W.$+W.=+=+=+W.*+v.>+,+%+g -+'+)+!+M.~+",
"{+#+]+^+r ~+/+- p (+_+:+W.=+<+<+=+W.W.=+Y.;+Y.[+[+[+Y.;+Y.=+W.W.=+<+<+=+W.}+|+1+2+3+4+* 5+6+7+k ",
"8+9+ .T +.0+M._+a+, b+c+W.=+<+=+W.=+<+<+[+d+e+e+f+e+e+d+[+<+<+=+W.=+<+=+W.g+h+i+j+k+O l+m+n+u.o+",
"p+J. .q+b+_ M.r+s+t+u+W.=+=+=+W.=+<+<+Y.v+e+<+<+<+<+<+e+v+Y.<+<+=+W.=+=+=+W.@ w+ .x+@ 9 @.W @ r ",
"x t G y+`.z+A+B+C+D+j+W.=+=+W.=+<+<+<+v+E+E+E+E+E+E+E+E+E+v+<+<+<+=+W.=+=+W.F+G+L y.H+U.y+I+i.^ ",
"~ J+3.) E._ K+L+$.].%+W.=+=+W.<+<+<+<+<+<+<+<+<+<+<+<+<+<+<+<+<+<+<+W.=+=+W.M+m @.N+O+O.H #+P+v.",
"Q+R+#.S+T+I.U+t.V+~+W+W.=+W.=+<+<+=+<+<+<+<+<+<+<+<+<+<+<+<+<+=+<+<+=+W.=+W.X+H Y+o ,.Z+`+M.m.1 ",
" @_ ^+ .. H .@+@@@m #.W.=+W.=+<+=+<+<+=+<+<+=+<+<+<+=+<+<+=+<+<+=+<+=+W.=+W.H #@$@[ ^+. %@&@'.i.",
"*@V+F+=@-@c I.r+.+H.;@W.=+W.=+=+=+<+<+=+<+<+=+<+<+<+=+<+<+=+<+<+=+=+=+W.=+W.>@,@'@)@!@@ ~+m.P.=.",
"T a+~@. k Q C+{@N.]@^@g W.W.=+Y.=+<+=+=+=+=+=+=+=+=+=+=+=+=+=+<+=+Y.=+W.=+=+W.C+/@(@_@Y+y+:@<@T ",
"+ ^.B ^ v.m.# [@}@I.|@1@W.W.Y.2@=+=+3@3@4@4@4@4@4@4@4@4@4@3@3@=+=+2@Y.W.=+=+W.5@6@D.4+%+| 7@f.r+",
"8@*@9@= 0@a@7 b@c@t+`+d@W.=+Y.2@=+2@e@e@e@e@4@4@4@4@4@e@e@e@e@2@=+2@Y.=+=+=+W.f@^ g@h@]+M.(+x+i@",
"x+_ j@#+9 k@+.-@l@. 8 . W.=+=+Y.=+e@e@m@n@o@4@4@4@4@4@o@n@m@e@e@=+Y.=+=+=+=+W.g@p@y.k@` @.;.u.N+",
"q@. r@/+G.s@[.t@M+u@v@w@x@W.=+=+W.y@e@z@n@A@4@4@4@4@4@A@n@z@e@y@W.W.=+=+=+=+W.B@C@:+D@y+$.#.S+' ",
"  . + @ # $ % & * = - ; > W.=+=+E@Y.2@3@F@F@4@4@4@4@4@F@F@3@2@Y.E@W.=+=+=+=+W.' ) ! ~ { ] ^ / - ",
"_ : < [ . ( } | 1 2 3 ] 4 W.=+E@G@G@Y.2@3@4@4@4@4@4@4@4@3@2@Y.G@H@E@W.=+=+=+W.+ 7 ^ 8 9 & 0 _ c ",
"d e ; f g h i j k l m n o W.E@G@H@H@G@Y.y@2@3@3@3@3@3@2@y@Y.G@I@I@H@E@=+=+=+W.q ) ' r s t u 3 w ",
"x y z A ] B C D E F G H C W.E@G@I@J@K@L@Y.Y.Y.Y.Y.Y.Y.Y.Y.L@K@J@I@I@E@W.=+=+W.K L M N ^ O P Q R ",
"U V W X Y H Z ` r  .o ..+.E@L@L@K@H@G@H@M@M@N@3@3@3@N@M@M@H@G@I@J@I@H@E@=+=+W.$.%.&.*.=.g -.;.z ",
"^ ,.O '.).!.~.{.].].` #.^.Y.y@M@G@G@E@H@I@N@N@O@N@O@N@N@I@H@E@H@I@J@I@E@W.=+W./.( + [ (._.;.#.- ",
":.<.[.#.}.|.1.2.3.( 4.Q 5.Y.y@y@Y.E@E@E@H@I@I@H@O@H@I@I@H@E@E@N@O@J@I@E@P@W.W.8.9.0.a.8 b.c.e.f.",
"{.g.h.i.j.k.l.m.M n.w o.p.E@Y.Y.E@E@Q@M@G@G@G@G@H@G@G@G@G@M@Y.4@4@M@J@E@P@W.r.) s.t.o  .u.J '.y.",
"z.A.h.^ B.C.D.I & E.' F.E@G@L@R@E@E@Q@M@N@O@N@I@I@I@N@O@N@M@Y.4@4@3@J@L@E@H.I.J ^.I J.K..   L.z ",
"O.P.Q.R.( < S.@ 3.T.U.y.E@H@K@R@E@E@M@G@M@N@L@O@O@O@L@N@M@G@Y.2@3@y@Y.K@E@p Z.j `.^ ] X.^.y. +@ ",
"+..+e ++@+#+$+k _.%+&+E@G@I@J@R@E@G@G@H@I@L@K@K@K@K@L@I@I@H@G@Y.Y.Y.R@K@G@E@>+,+%+g -+'+)+!+M.~+",
"{+#+]+^+r ~+/+- p (+E@G@H@I@J@R@G@H@I@I@K@J@J@J@J@J@K@K@I@I@H@G@G@E@R@L@G@G@E@1+2+3+4+* 5+6+7+k ",
"8+9+ .T +.0+M._+a+E@G@H@I@I@J@R@G@I@I@L@L@L@K@K@K@L@L@L@I@I@H@G@G@E@E@R@L@L@R@i+j+k+O l+m+n+u.o+",
"p+J. .q+b+_ M.r+s+R@L@K@J@J@R@E@G@I@I@K@J@J@J@J@J@J@J@K@L@H@H@G@E@E@E@R@R@R@@ w+ .x+@ 9 @.W @ r ",
"x t G y+`.z+A+B+C+D+R@R@R@R@F+G+E@G@H@L@L@K@K@J@J@K@K@L@L@G@E@E@C+D+j+S@T@n+F+G+L y.H+U.y+I+i.^ ",
"~ J+3.) E._ K+L+$.].%+U@q+V@M+m @.N+O+O.H #+5 [.W@+.3.) E._ K+L+$.].%+U@q+V@M+m @.N+O+O.H #+P+v.",
"Q+R+#.S+T+I.U+t.V+~+W+X@~@G.X+H Y+o ,.Z+`+M.Y@y Z@`@J S+T+I.U+t.V+~+W+X@~@G.X+H Y+o ,.Z+`+M.m.1 ",
" @_ ^+ .. H .@+@@@m #. #_+.#H #@$@[ ^+. %@&@'.i.+#& ^+ .. H .@+@@@m #. #_+.#H #@$@[ ^+. %@&@'.i.",
"*@V+F+=@-@c I.r+.+H.;@_+@#q@>@,@'@)@!@@ ~+m.##$#%#&#F+=@-@c I.r+.+H.;@_+@#q@>@,@'@)@!@@ ~+m.P.=.",
"T a+~@. k Q C+{@N.]@^@g *#| >+C+/@(@_@Y+y+:@=#B+p -#~@. k Q C+{@N.]@^@g *#| >+C+/@(@_@Y+y+:@<@T ",
"+ ^.B ^ v.m.# [@}@I.|@1@v.  q 5@6@D.4+%+| 7@f.r+[.^.B ^ v.m.# [@}@I.|@1@v.  q 5@6@D.4+%+| 7@f.r+",
"8@*@9@= 0@a@7 ;#a+t+`+d@>#0 ,#f@^ g@h@]+M.(+x+H.8@'#9@= 0@a@7 ;#a+t+`+d@>#0 ,#f@^ g@h@]+M.(+x+i@",
")#_ j@#+!#C@n+I ~#. 8 . _+'.. {#p@y.k@` ~+;.]#N+J.0 j@#+!#C@n+I ~#. 8 . _+'.. {#p@y.k@` ~+;.u.c@",
"^ J r@H+^#X < < /#p.(#_#x@:#[.<#C@:+[#/ X Z }#_.;.. r@H+^#X < < /#p.(#_#x@:#[.<#C@:+[#/ X N+E.- "};
