/* XPM */
static char * vide_01_xpm[] = {
"48 48 369 2",
"  	c None",
". 	c #668B46",
"+ 	c #618744",
"@ 	c #577D3E",
"# 	c #638945",
"$ 	c #557A3E",
"% 	c #628944",
"& 	c #658C48",
"* 	c #5C8341",
"= 	c #4C7339",
"- 	c #567B3E",
"; 	c #5A8040",
"> 	c #608443",
", 	c #5D8040",
"' 	c #668B48",
") 	c #587E3F",
"! 	c #5B8140",
"~ 	c #486D36",
"{ 	c #577E3D",
"] 	c #608544",
"^ 	c #5D8441",
"/ 	c #628844",
"( 	c #50763B",
"_ 	c #5A8140",
": 	c #5C8241",
"< 	c #4F743A",
"[ 	c #597F40",
"} 	c #55793E",
"| 	c #4E7039",
"1 	c #4E723A",
"2 	c #638A46",
"3 	c #628644",
"4 	c #5E8442",
"5 	c #51783C",
"6 	c #4B7139",
"7 	c #4A7139",
"8 	c #5B8041",
"9 	c #618644",
"0 	c #648A45",
"a 	c #5C8242",
"b 	c #6C924A",
"c 	c #4E743A",
"d 	c #6B9049",
"e 	c #486E37",
"f 	c #50753B",
"g 	c #56793E",
"h 	c #567C3E",
"i 	c #557B3D",
"j 	c #577A3E",
"k 	c #58803F",
"l 	c #608643",
"m 	c #699049",
"n 	c #5F8744",
"o 	c #5A813F",
"p 	c #648B46",
"q 	c #668B47",
"r 	c #688E47",
"s 	c #658A46",
"t 	c #5E8541",
"u 	c #557B3E",
"v 	c #4E743B",
"w 	c #476D36",
"x 	c #5E8441",
"y 	c #5A7F3F",
"z 	c #658B47",
"A 	c #5D8341",
"B 	c #5C8140",
"C 	c #638845",
"D 	c #6A914A",
"E 	c #6F934B",
"F 	c #73934A",
"G 	c #698C48",
"H 	c #5D8342",
"I 	c #658B46",
"J 	c #698F48",
"K 	c #608743",
"L 	c #72954B",
"M 	c #6C9049",
"N 	c #4F743B",
"O 	c #5D8240",
"P 	c #547A3D",
"Q 	c #52773E",
"R 	c #577E3F",
"S 	c #51763C",
"T 	c #5A7E3F",
"U 	c #658A47",
"V 	c #608845",
"W 	c #6A9048",
"X 	c #6B9149",
"Y 	c #5E8542",
"Z 	c #638B45",
"` 	c #628743",
" .	c #608644",
"..	c #6A9049",
"+.	c #658B45",
"@.	c #648945",
"#.	c #668C47",
"$.	c #618743",
"%.	c #5C8441",
"&.	c #6C9249",
"*.	c #678E47",
"=.	c #4C713A",
"-.	c #598040",
";.	c #638946",
">.	c #658A45",
",.	c #608846",
"'.	c #628A45",
").	c #557C3E",
"!.	c #5D8442",
"~.	c #567A3D",
"{.	c #52733A",
"].	c #597D3F",
"^.	c #5B813F",
"/.	c #5F8443",
"(.	c #567E3E",
"_.	c #4E753C",
":.	c #587F3F",
"<.	c #6B904A",
"[.	c #547B3D",
"}.	c #577D3F",
"|.	c #52753B",
"1.	c #506D37",
"2.	c #5B7F3F",
"3.	c #5E8242",
"4.	c #648A46",
"5.	c #618843",
"6.	c #446A35",
"7.	c #4D7238",
"8.	c #53783C",
"9.	c #5B7E3F",
"0.	c #5D8343",
"a.	c #446332",
"b.	c #4E6936",
"c.	c #5F8542",
"d.	c #587E3E",
"e.	c #4D7439",
"f.	c #4D7339",
"g.	c #5D8340",
"h.	c #446935",
"i.	c #5E8543",
"j.	c #547A3E",
"k.	c #5B803F",
"l.	c #5C7F40",
"m.	c #6A9149",
"n.	c #51783D",
"o.	c #587F40",
"p.	c #4F763C",
"q.	c #4D743B",
"r.	c #587C3E",
"s.	c #5A7C3E",
"t.	c #6B8F48",
"u.	c #668845",
"v.	c #688D48",
"w.	c #567C3F",
"x.	c #587D40",
"y.	c #436935",
"z.	c #628845",
"A.	c #5B7F41",
"B.	c #5E8643",
"C.	c #70944A",
"D.	c #70934A",
"E.	c #6D914A",
"F.	c #597F3F",
"G.	c #567D3F",
"H.	c #5A8142",
"I.	c #638A45",
"J.	c #628945",
"K.	c #6A904A",
"L.	c #5F8644",
"M.	c #678E48",
"N.	c #5F8543",
"O.	c #5A7F40",
"P.	c #698D48",
"Q.	c #537A3D",
"R.	c #436836",
"S.	c #658C47",
"T.	c #6B924B",
"U.	c #688C48",
"V.	c #5A803F",
"W.	c #668A47",
"X.	c #598240",
"Y.	c #5A8240",
"Z.	c #486F37",
"`.	c #608844",
" +	c #53793D",
".+	c #608843",
"++	c #587E40",
"@+	c #567E3F",
"#+	c #53793C",
"$+	c #567D3E",
"%+	c #557D3E",
"&+	c #577B3E",
"*+	c #618844",
"=+	c #557C3F",
"-+	c #577B3D",
";+	c #4F6D36",
">+	c #4F783D",
",+	c #5B8141",
"'+	c #53793E",
")+	c #476C37",
"!+	c #688C47",
"~+	c #678C47",
"{+	c #577D3D",
"]+	c #5E8341",
"^+	c #5F8643",
"/+	c #5E8642",
"(+	c #688E48",
"_+	c #608744",
":+	c #5E8443",
"<+	c #436734",
"[+	c #59793D",
"}+	c #58783D",
"|+	c #51733A",
"1+	c #52763C",
"2+	c #597E3F",
"3+	c #466835",
"4+	c #456634",
"5+	c #4C6E38",
"6+	c #567C3D",
"7+	c #4B6E37",
"8+	c #4A7037",
"9+	c #4D733B",
"0+	c #668E48",
"a+	c #638944",
"b+	c #587D3F",
"c+	c #588040",
"d+	c #5B8242",
"e+	c #547A3F",
"f+	c #537A3E",
"g+	c #4B7137",
"h+	c #5D8242",
"i+	c #6C9149",
"j+	c #4B7239",
"k+	c #5B7E3E",
"l+	c #658946",
"m+	c #698E48",
"n+	c #4B733B",
"o+	c #547C3D",
"p+	c #658D46",
"q+	c #5F8442",
"r+	c #59803F",
"s+	c #608542",
"t+	c #598140",
"u+	c #598141",
"v+	c #678C46",
"w+	c #6F954B",
"x+	c #638745",
"y+	c #698F49",
"z+	c #668A46",
"A+	c #648D46",
"B+	c #6A8F49",
"C+	c #4F753B",
"D+	c #4F733A",
"E+	c #53743B",
"F+	c #648946",
"G+	c #54773C",
"H+	c #456935",
"I+	c #55723A",
"J+	c #4A6434",
"K+	c #699048",
"L+	c #71924A",
"M+	c #5F8743",
"N+	c #51773C",
"O+	c #5C8342",
"P+	c #658945",
"Q+	c #426232",
"R+	c #4D723B",
"S+	c #506B35",
"T+	c #50793D",
"U+	c #4B713A",
"V+	c #628744",
"W+	c #618945",
"X+	c #557D3D",
"Y+	c #4A7039",
"Z+	c #557A3D",
"`+	c #53773D",
" @	c #577E3E",
".@	c #567D3D",
"+@	c #608242",
"@@	c #6E934A",
"#@	c #5D8041",
"$@	c #5D8140",
"%@	c #678D48",
"&@	c #6A9148",
"*@	c #5E8342",
"=@	c #4C7139",
"-@	c #4F763B",
";@	c #53783D",
">@	c #557A3C",
",@	c #52773D",
"'@	c #52783B",
")@	c #6D934B",
"!@	c #71944B",
"~@	c #6D9049",
"{@	c #70974C",
"]@	c #51713A",
"^@	c #4B6835",
"/@	c #6F964B",
"(@	c #70964B",
"_@	c #52793B",
":@	c #698E49",
"<@	c #628843",
"[@	c #547D3E",
"}@	c #648A44",
"|@	c #4B6D37",
"1@	c #4E6F38",
"2@	c #5F8441",
"3@	c #597D3E",
"4@	c #4D6E37",
"5@	c #577F3F",
"6@	c #6A8F4A",
"7@	c #6F944A",
"8@	c #567A3E",
"9@	c #4F6F38",
"0@	c #56753B",
"a@	c #436A35",
"b@	c #466834",
"c@	c #527239",
"d@	c #54743C",
"e@	c #50733B",
"f@	c #55733B",
"g@	c #648944",
"h@	c #55743B",
"i@	c #56793C",
"j@	c #618543",
"k@	c #4F6F37",
"l@	c #446834",
"m@	c #4D713A",
"n@	c #688B46",
"o@	c #628541",
"p@	c #52783C",
"q@	c #638B44",
"r@	c #5B8040",
"s@	c #5E7F3F",
"t@	c #638844",
"u@	c #5A7E41",
"v@	c #749A4E",
"w@	c #50783C",
"x@	c #71954C",
"y@	c #648B47",
"z@	c #72974B",
"A@	c #678E49",
"B@	c #638A44",
"C@	c #5B8240",
"D@	c #658C46",
"E@	c #597F41",
"F@	c #5C8340",
"G@	c #688D47",
"H@	c #52773C",
"I@	c #5D8241",
"J@	c #577C3E",
"K@	c #4C713B",
"L@	c #5B7D3F",
"M@	c #54733B",
"N@	c #55783D",
"O@	c #5B8341",
"P@	c #668D47",
"Q@	c #466836",
"R@	c #5C8442",
"S@	c #648B45",
"T@	c #5A8041",
"U@	c #638B47",
"V@	c #4C743A",
"W@	c #5D7E40",
"X@	c #54743B",
"Y@	c #608543",
"Z@	c #5B8241",
"`@	c #466A36",
" #	c #587F3E",
". + @ # $ % & * = - ; > , ' + ) ! ~ { ] ^ / ( _ . + @ # $ % & * = - ; > , ' + ) ! ~ { ] ^ / ( ; ",
": < [ } + _ | 1 2 3 4 ^ 5 6 7 @ 8 / 9 0 * a : b _ c [ } + _ | 1 2 3 4 ^ 5 6 7 @ 8 / 9 0 * a : d ",
"e f > g h i j k l m n o p : q r ! ) s t u v 4 4 w f > g h i j k l m n o p : q r ! ) s t u v 4 x ",
"y z A B ^ C D E F G H I D J K L M N O / P Q R S T U A B ^ C D E F G H I D J K L M N O / P Q R S ",
"V W X Y Z I `  .s ..p +.@.#.$.%.&.*.=.-.h ;.>.* ,.W X Y Z I `  .s ..p +.@.#.$.%.&.*.=.-.h ;.>.A ",
"/ '.P ).!.~.{.].^.^. .$./.H i (._ @ } _.:.>.$._ # 2 P ).!.~.{.].^.^. .$./.H i (._ @ } _.:.>.$.; ",
"<.[.}.$.|.1.2.3.4._ 5.R 6.7.8.9.0.a.b.9 c.d.e.x D [.}.$.|.1.2.3.4._ 5.R 6.7.8.9.0.a.b.9 c.d.f.g.",
"].h.i.j.k.l.m.n.N o.x p.q.r.s.! t.u.p ..v.K w.;.x.y.i.j.k.l.m.n.N o.x p.q.r.s.! t.u.p ..v.K ).z.",
"A.B.i./ C.D.E.J * F.) G.H.I.J.K /.J K.L.+ . M.N.O.i.i./ C.D.E.J * F.) G.H.I.J.K /.J K.L.+ . M.A ",
"P.Q.R.S._ [ T.# 4.U.V.z.W.q X.k Y./ ^ Z./.z.`.0 v. +R.S._ [ T.# 4.U.V.z.W.q X.k Y./ ^ Z./.z..+# ",
"@.++f @+#+$+%+l :.&+*+* =+w.-+;+&+h >+,+'+)+N.!+# ++f @+#+$+%+l :.&+*+* =+w.-+;+&+h >+,+'+)+N.~+",
"{+$+]+^+s ~+/+; q (+_+:+ +<+[+}+|+1+2+= 3+4+5++ 6+h ]+^+s ~+/+; q (+_+:+ +<+[+}+|+1+2+= 3+4+7+l ",
"8+9+..U @.0+N._+a+' b+c+d+e+f+g+h+i+P j+k+l+m+h Z.n+..U @.0+N._+a+' b+c+d+e+f+g+h+i+P j+k+l+v.o+",
"p+K...q+b+: N.r+s+t+u+!.v+w+# x+..y+# 0 #.X 0 z+A+..B+q+b+: N.r+s+t+u+!.v+w+# x+..y+# 0 #.X # s ",
"y u H C+Y.D+E+F+G+H+h+I+J+l+K+L+M z.M+V.C+N+$ # F.$ O+C+Y.D+E+F+G+H+h+I+J+l+K+L+M z.M+V.C+N+j./ ",
"{ P+4.! F.: Q+R+%.^.&+S+q+T+U+n #.V+W+P.I $+6 }.X+@.4.! F.: Q+R+%.^.&+S+q+T+U+n #.V+W+P.I $+Y+w.",
"Z+`+$. @.@J.+@u.@@~+#@$@%@H.&@I *@p '.=@-@N.;@z >@,@K  @.@J.+@u.@@~+#@$@%@H.&@I *@p '.=@-@N.n.2 ",
"'@: ^+..+ I )@!@~@n $.6+_+{@I ]@^@} ^++ /@(@).j._@* ^+..+ I )@!@~@n $.6+_+{@I ]@^@} ^++ /@(@).j.",
":@@@K+<@m+d J.r+++I.[@_+`.}@|@1@2@3@4@# ~+n. +5@6@7@K+<@m+d J.r+++I.[@_+`.}@|@1@2@3@4@# ~+n.Q.-.",
"U a+%@+ l R G+8@O.9@0@h a@1 -+G+b@c@d@*@C+e@f@F+q g@%@+ l R G+8@O.9@0@h a@1 -+G+b@c@d@*@C+e@h@U ",
"@ /.C / w.n.$ i@j@J.k@l@w.. r m@n@E.2+&+1 o@g.r+}./.C / w.n.$ i@j@J.k@l@w.. r m@n@E.2+&+1 o@g.r+",
"p@:@q@- r@s@8 O+t@t+-@u@v@a w@x@/ y@z@]+N.(+y+I.p@A@q@- r@s@8 O+t@t+-@u@v@a w@x@/ y@z@]+N.(+y+B@",
"y+: C@$+0 D@@.m+E@+ 9 + K ).+ y@F@z.D@ .#.>.G@V+6@a C@$+0 D@@.m+E@+ 9 + K ).+ y@F@z.D@ .#.>.v.V+",
"}@+ H@/+H.I@}.J@U+K@L@M@N@j@R O@P@:+Q@C+%.$. @) >.+ H@/+H.I@}.J@U+K@L@M@N@j@R O@P@:+Q@C+%.$. @) ",
". + @ # $ % & * = - ; > , ' + ) ! ~ { ] ^ / ( _ . + @ # $ % & * = - ; > , ' + ) ! ~ { ] ^ / ( ; ",
": < [ } + _ | 1 2 3 4 ^ 5 6 7 @ 8 / 9 0 * a : b _ c [ } + _ | 1 2 3 4 ^ 5 6 7 @ 8 / 9 0 * a : d ",
"e f > g h i j k l m n o p : q r ! ) s t u v 4 4 w f > g h i j k l m n o p : q r ! ) s t u v 4 x ",
"y z A B ^ C D E F G H I D J K L M N O / P Q R S T U A B ^ C D E F G H I D J K L M N O / P Q R S ",
"V W X Y Z I `  .s ..p +.@.#.$.%.&.*.=.-.h ;.>.* ,.W X Y Z I `  .s ..p +.@.#.$.%.&.*.=.-.h ;.>.A ",
"/ '.P ).!.~.{.].^.^. .$./.H i (._ @ } _.:.>.$._ # 2 P ).!.~.{.].^.^. .$./.H i (._ @ } _.:.>.$.; ",
"<.[.}.$.|.1.2.3.4._ 5.R 6.7.8.9.0.a.b.9 c.d.e.x D [.}.$.|.1.2.3.4._ 5.R 6.7.8.9.0.a.b.9 c.d.f.g.",
"].h.i.j.k.l.m.n.N o.x p.q.r.s.! t.u.p ..v.K w.;.x.y.i.j.k.l.m.n.N o.x p.q.r.s.! t.u.p ..v.K ).z.",
"A.B.i./ C.D.E.J * F.) G.H.I.J.K /.J K.L.+ . M.N.O.i.i./ C.D.E.J * F.) G.H.I.J.K /.J K.L.+ . M.A ",
"P.Q.R.S._ [ T.# 4.U.V.z.W.q X.k Y./ ^ Z./.z.`.0 v. +R.S._ [ T.# 4.U.V.z.W.q X.k Y./ ^ Z./.z..+# ",
"@.++f @+#+$+%+l :.&+*+* =+w.-+;+&+h >+,+'+)+N.!+# ++f @+#+$+%+l :.&+*+* =+w.-+;+&+h >+,+'+)+N.~+",
"{+$+]+^+s ~+/+; q (+_+:+ +<+[+}+|+1+2+= 3+4+5++ 6+h ]+^+s ~+/+; q (+_+:+ +<+[+}+|+1+2+= 3+4+7+l ",
"8+9+..U @.0+N._+a+' b+c+d+e+f+g+h+i+P j+k+l+m+h Z.n+..U @.0+N._+a+' b+c+d+e+f+g+h+i+P j+k+l+v.o+",
"p+K...q+b+: N.r+s+t+u+!.v+w+# x+..y+# 0 #.X 0 z+A+..B+q+b+: N.r+s+t+u+!.v+w+# x+..y+# 0 #.X # s ",
"y u H C+Y.D+E+F+G+H+h+I+J+l+K+L+M z.M+V.C+N+$ # F.$ O+C+Y.D+E+F+G+H+h+I+J+l+K+L+M z.M+V.C+N+j./ ",
"{ P+4.! F.: Q+R+%.^.&+S+q+T+U+n #.V+W+P.I $+6 }.X+@.4.! F.: Q+R+%.^.&+S+q+T+U+n #.V+W+P.I $+Y+w.",
"Z+`+$. @.@J.+@u.@@~+#@$@%@H.&@I *@p '.=@-@N.;@z >@,@K  @.@J.+@u.@@~+#@$@%@H.&@I *@p '.=@-@N.n.2 ",
"'@: ^+..+ I )@!@~@n $.6+_+{@I ]@^@} ^++ /@(@).j._@* ^+..+ I )@!@~@n $.6+_+{@I ]@^@} ^++ /@(@).j.",
":@@@K+<@m+d J.r+++I.[@_+`.}@|@1@2@3@4@# ~+n. +5@6@7@K+<@m+d J.r+++I.[@_+`.}@|@1@2@3@4@# ~+n.Q.-.",
"U a+%@+ l R G+8@O.9@0@h a@1 -+G+b@c@d@*@C+e@f@F+q g@%@+ l R G+8@O.9@0@h a@1 -+G+b@c@d@*@C+e@h@U ",
"@ /.C / w.n.$ i@j@J.k@l@w.. r m@n@E.2+&+1 o@g.r+}./.C / w.n.$ i@j@J.k@l@w.. r m@n@E.2+&+1 o@g.r+",
"p@:@q@- r@s@8 R@a+t+-@u@v@a w@x@/ y@z@]+N.(+y+I.p@A@q@- r@s@8 R@a+t+-@u@v@a w@x@/ y@z@]+N.(+y+B@",
"B+: C@$+S@P@l+J T@+ 9 + _+).+ U@F@z.D@ .~+>.G@V+K.a C@$+S@P@l+J T@+ 9 + _+).+ U@F@z.D@ .~+>.v.t@",
"/ K H@M+d+Y [ [ V@q.W@X@N@Y@}.Z@P@:+`@( Y `  #:.>.+ H@M+d+Y [ [ V@q.W@X@N@Y@}.Z@P@:+`@( Y V+F.; "};
