/* XPM */
static char * wall_01_xpm[] = {
"48 48 163 2",
"  	c None",
". 	c #323234",
"+ 	c #313133",
"@ 	c #2F2F31",
"# 	c #2E2E30",
"$ 	c #2D2E2F",
"% 	c #2E2F30",
"& 	c #303032",
"* 	c #2F3032",
"= 	c #2F3031",
"- 	c #303132",
"; 	c #373739",
"> 	c #3E3D40",
", 	c #434246",
"' 	c #454448",
") 	c #444347",
"! 	c #424044",
"~ 	c #3C3B3D",
"{ 	c #424144",
"] 	c #434145",
"^ 	c #3F3D41",
"/ 	c #3B3A3D",
"( 	c #3C3B3E",
"_ 	c #3D3B3E",
": 	c #38373A",
"< 	c #343335",
"[ 	c #363639",
"} 	c #4F4D52",
"| 	c #5C595E",
"1 	c #605D63",
"2 	c #5D5B60",
"3 	c #575459",
"4 	c #4E4B4F",
"5 	c #49464B",
"6 	c #4E4C50",
"7 	c #58555B",
"8 	c #59565B",
"9 	c #504D52",
"0 	c #484549",
"a 	c #48464A",
"b 	c #4A474B",
"c 	c #4B484C",
"d 	c #413F42",
"e 	c #363538",
"f 	c #3D3C3F",
"g 	c #4E4C51",
"h 	c #6D6970",
"i 	c #726E75",
"j 	c #716D74",
"k 	c #646067",
"l 	c #59555A",
"m 	c #534F54",
"n 	c #5A565B",
"o 	c #666269",
"p 	c #67636A",
"q 	c #5C585D",
"r 	c #514D52",
"s 	c #524E53",
"t 	c #545055",
"u 	c #555156",
"v 	c #474448",
"w 	c #414043",
"x 	c #5A585D",
"y 	c #757178",
"z 	c #706C73",
"A 	c #6A656C",
"B 	c #625E64",
"C 	c #5A555B",
"D 	c #5B565C",
"E 	c #656167",
"F 	c #5C585E",
"G 	c #555056",
"H 	c #575258",
"I 	c #585359",
"J 	c #49464A",
"K 	c #383739",
"L 	c #434245",
"M 	c #5F5C61",
"N 	c #666268",
"O 	c #5D595F",
"P 	c #59545A",
"Q 	c #565258",
"R 	c #5B575C",
"S 	c #575358",
"T 	c #544F54",
"U 	c #5F5C62",
"V 	c #5C5A5F",
"W 	c #58565B",
"X 	c #676269",
"Y 	c #646066",
"Z 	c #403F42",
"` 	c #57545A",
" .	c #3F3E41",
"..	c #514E53",
"+.	c #5E595F",
"@.	c #565156",
"#.	c #39383B",
"$.	c #3C3C3E",
"%.	c #504D51",
"&.	c #363638",
"*.	c #464347",
"=.	c #48454A",
"-.	c #403E42",
";.	c #353537",
">.	c #353436",
",.	c #474549",
"'.	c #2D2D2F",
").	c #39393B",
"!.	c #3A393C",
"~.	c #3B3A3C",
"{.	c #39383A",
"].	c #373639",
"^.	c #3A393B",
"/.	c #363537",
"(.	c #343436",
"_.	c #3B3B3E",
":.	c #464448",
"<.	c #474548",
"[.	c #403E41",
"}.	c #4D4B50",
"|.	c #565358",
"1.	c #4C4A4E",
"2.	c #58555A",
"3.	c #4F4C51",
"4.	c #565459",
"5.	c #4E4B50",
"6.	c #6F6B72",
"7.	c #656168",
"8.	c #6B676E",
"9.	c #645F66",
"0.	c #5B575D",
"a.	c #635F65",
"b.	c #5A565C",
"c.	c #565257",
"d.	c #49474B",
"e.	c #3E3C3F",
"f.	c #454246",
"g.	c #353437",
"h.	c #343336",
"i.	c #424145",
"j.	c #424245",
"k.	c #5E5B61",
"l.	c #5D5A60",
"m.	c #4D4B4F",
"n.	c #57555A",
"o.	c #6E6A71",
"p.	c #757078",
"q.	c #6F6A71",
"r.	c #6B676D",
"s.	c #706B73",
"t.	c #5D595E",
"u.	c #514D51",
"v.	c #3F3D40",
"w.	c #454347",
"x.	c #444346",
"y.	c #3F3E42",
"z.	c #5E5B60",
"A.	c #565359",
"B.	c #6A666D",
"C.	c #504C50",
"D.	c #504C51",
"E.	c #534F53",
"F.	c #524E52",
". . + @ # $ $ # % @ & @ # # # @ & & & & * = & - . . + @ # $ $ # % @ & @ # # # @ & & & & & & & & ",
". . . . . . . . . . . . . . . . . . . . . . . . . . . . . . . . . . . . . . . . . . . . . . . . ",
"+ . ; > , ' ' ) ! > ~ > { ) ] ^ ~ / / ~ ( _ ~ : < . [ > , ' ' ) ! > ~ > { ) ] ^ ~ / / ~ ~ ~ ~ ~ ",
"@ . > } | 1 1 2 3 4 5 6 7 2 8 9 5 0 a 5 b c 5 d e . f g | 1 1 2 3 4 5 6 7 2 8 9 5 0 a 5 5 5 5 5 ",
"# . , | h i j h k l m n o h p q m r s m t u m v ; . w x h i j h k l m n o h p q m r s m m m m m ",
"$ . ' 1 i y z A B C u D k A E F u t G u H I u J K . L M i y z A B C u D k A E F u t G u u u u u ",
"$ . ' 1 j z N O P u t Q D O R S t T t t u H t 0 ; . L U j z N O P u t Q D O R S t T t t t t t t ",
"# . ) 2 h A O m r s m m m m m m m m m m t u m v ; . { V h A O m r s m m m m m m m m m m m m m m ",
"# . { W X Y n s r m t t m s m T t t t t u H t 0 : . Z ` X Y n s r m t t m s m T t t t t t t t t ",
"@ .  ...O +.P t t u u u G t G u u @.u u H I u 5 #.. $.%.O +.P t t u u u G t G u u @.u u u u u u ",
"& . ~ 5 m u t m m m m m m m m m m m m m t u m 0 #.. #.0 m u t m m m m m m m m m m m m m m m m m ",
"% & &. .*.0 =.0 0 0 0 a J 5 J 0 v v v v 0 b 0 -.;.& >.> *.0 =.0 0 0 0 a J 5 J 0 v v v v ,.0 0 0 ",
"'.# + ;.: #.).#.#.#.#.!./ ~ ~.{.; ].].; : ^.#./.& # & >.: #.).#.#.#.#.!./ ~ ~.{.; ].].; : {.#.).",
". . . . . . . . . . . . . . . . . . . . . . . . . . . . . . . . . . . . . . . . . . . . . . . . ",
"' ) w f #.{.#.#.^.!.#.e + & (._.w L L {  ./ #.( { ) { f #.{.#.#.^.!.#.e + & (._.w L L { Z ( #.{.",
"U 2 3 6 0 :.<.0 J b 0 [.>.+ _.}.x U U V |.1.0 4 2.2 8 3.0 :.<.0 J b 0 [.>.+ _.}.x U U V 4.5.0 v ",
"6.h 7.R m r s m t u m v ; . w x h i j h k l m n o h p q m r s m t u m v ; . w x h i j h 7.R m r ",
"8.A 9.0.u t G u H I u J K . L M i y z A B C u D k A E F u t G u H I u J K . L M i y z A a.R u t ",
"+.O b.S t T t t u H t 0 ; . L U j z N O P u t Q D O R S t T t t u H t 0 ; . L U j z N O l c.t T ",
"m m m m m m m m t u m v ; . { V h A O m r s m m m m m m m m m m t u m v ; . { V h A O m r s m m ",
"s s m t t t t t u H t 0 : . Z ` X Y n s r m t t m s m T t t t t u H t 0 : . Z ` X Y n s r m t t ",
"t t G u u @.u u H I u 5 #.. $.%.O +.P t t u u u G t G u u @.u u H I u 5 #.. $.%.O +.P t t u u @.",
"m m m m m m m m t u m 0 #.. #.0 m u t m m m m m m m m m m m m m t u m 0 #.. #.0 m u t m m m m m ",
"d.5 J 0 v v v v 0 b 0 -.;.& >.> *.0 =.0 0 0 0 a J 5 J 0 v v v v 0 J v [.e + ;.e.f.,.0 0 a 0 0 0 ",
"( ~ !.{.; ].].; : ^.#./.& # & >.: #.).#.#.#.#.!./ ~ ~.{.; ].].; K : ; g.+ & + h.&.K {.#.^.).#.#.",
". . . . . . . . . . . . . . . . . . . . . . . . . . . . . . . . . . . . . . . . . . . . . . . . ",
"% & ;.( w L L {  ./ #.( { ) { f #.{.#.#.^.!.#.e + & (._.w L i.{ i.j.{ Z f ~ f w { Z ( #.{.#.#.#.",
"# + f 6 x U U V |.1.0 4 2.2 8 3.0 :.<.0 J b 0 [.>.+ _.}.x k.l.V l.k.V |.m.5 5.n.V 2.3.0 v ,.0 0 ",
"# . , | h i j h k l m n o h p q m r s m t u m v ; . w x h j 6.h o.6.h k l m n o h p q m r s m m ",
"$ . ' 1 i y z A B C u D k A E F u t G u H I u J K . L M i p.q.A A r.A a.n u D k A E F u t G u u ",
"$ . ' 1 j z N O P u t Q D O R S t T t t u H t 0 ; . L U j s.E O q t.O n c.t Q D O R S t T t t t ",
"# . ) 2 h A O m r s m m m m m m m m m m t u m v ; . { V h A O m r s m m m m m m m m m m m m m m ",
"# . { W X Y n s r m t t m s m T t t t t u H t 0 : . Z ` X Y b.s u.r s m t t t m s m T t t t t t ",
"@ .  ...O +.P t t u u u G t G u u @.u u H I u 5 #.. $.%.O +.P t t t t u u u u G t G u u @.u u u ",
"& . ~ 5 m u t m m m m m m m m m m m m m t u m 0 #.. #.0 m u t m m m m m m m m m m m m m m m m m ",
"% & e v.f.0 0 0 a 0 0 a J 5 J 0 v v v v 0 J v [.e + ;.e.f.,.0 0 a 0 0 a J 5 J 0 v v v v ,.0 0 0 ",
"'.# & < &.: #.#.).#.#.!./ ~ ~.{.; ].].; K : ; g.+ & + h.&.K {.#.).#.#.!./ ~ ~.{.; ].].; : {.#.).",
". . . . . . . . . . . . . . . . . . . . . . . . . . . . . . . . . . . . . . . . . . . . . . . . ",
"w.) x., { y.( #.#.^.#.e + & (._.w L i.{ i.j.{ Z f ~ f w { Z ( #.#.^.#.e + & (._.w L L { Z ( #.{.",
"z.2 k.k.V A.5.0 ,.J 0 [.>.+ _.}.x k.l.V l.k.V |.m.5 5.n.V 2.3.0 ,.J 0 [.>.+ _.}.x U U V 4.5.0 v ",
"h h o.6.h 7.R m s t m v ; . w x h j 6.h o.6.h k l m n o h p q m s t m v ; . w x h i j h 7.R m r ",
"A A B.8.A 9.0.u u S u J K . L M i p.q.A A r.A a.n u D k A E F u u S u J K . L M i y z A a.R u t ",
"O O O +.O b.S t u c.t 0 ; . L U j s.E O q t.O n c.t Q D O R S t u c.t 0 ; . L U j z N O l c.t T ",
"m m m m m m m m t u m v ; . { V h A O m r s m m m m m m m m m m t u m v ; . { V h A O m r s m m ",
"r r r r r s s m t @.m ,.: . Z 4.7.a.l r C.D.r s m m E.F.r F.s m t @.m ,.: . Z 4.7.a.l r D.s m m ",
"s s s s s s m m t u m 0 {.. ( 5.R 0.c.s r s s s m m m s s s m m t u m 0 {.. ( 5.R R c.s s s m m ",
"m m m m m m m m t u m 0 #.. #.0 m u t m m m m m m m m m m m m m t u m 0 #.. #.0 m u t m m m m m ",
"m m m m m m m m t u m 0 ).. {.v r t T m m m m m m m m m m m m m t u m 0 ).. {.v r t T m m m m m "};
